<?xml version="1.0" encoding="utf-8"?>
<!-- Generator: Adobe Illustrator 19.0.0, SVG Export Plug-In . SVG Version: 6.00 Build 0)  -->
<svg version="1.0" id="Layer_1" xmlns="http://www.w3.org/2000/svg" xmlns:xlink="http://www.w3.org/1999/xlink" x="0px" y="0px"
	 width="1400px" height="980px" viewBox="0 0 1400 980" enable-background="new 0 0 1400 980" xml:space="preserve">
<g id="XMLID_1_">
	<path id="XMLID_54_" fill="#DFAE57" d="M1328,948.4H72c-22.5,0-41-18.5-41-41V72.6c0-22.5,18.5-41,41-41H1328c22.5,0,41,18.4,41,41
		v834.7C1369,929.9,1350.5,948.4,1328,948.4z"/>
	<g id="XMLID_71_">
		<g id="XMLID_46_">
			<polygon id="XMLID_47_" fill="#41823A" points="1228,437.8 816.9,676.7 222.8,333.7 633.9,94.8 			"/>
		</g>
		<g id="XMLID_42_">
			<polygon id="XMLID_44_" fill="#367332" points="1228,437.8 1227.4,658.8 816.3,897.7 816.9,676.7 			"/>
		</g>
		<g id="XMLID_39_">
			<polygon id="XMLID_41_" fill="#1B501D" points="816.9,676.7 816.3,897.7 222.2,554.7 222.8,333.7 			"/>
		</g>
		<g id="XMLID_28_">
			<g id="XMLID_380_" enable-background="new    ">
				<defs>
					<polygon id="XMLID_392_" enable-background="new    " points="263.9,356.4 675,117.5 1228.1,436.8 817,675.7 					"/>
				</defs>
				<clipPath id="XMLID_3_">
					<use xlink:href="#XMLID_392_"  overflow="visible"/>
				</clipPath>
				<g id="XMLID_381_" clip-path="url(#XMLID_3_)">
					<polyline id="XMLID_391_" fill="#336A35" points="716.6,141.5 675,117.5 263.9,356.4 305.5,380.4 716.6,141.5 					"/>
					<polyline id="XMLID_390_" fill="#336A35" points="801.9,190.7 760.3,166.7 349.2,405.6 390.8,429.6 801.9,190.7 					"/>
					<polyline id="XMLID_389_" fill="#336A35" points="887.1,240 845.5,215.9 434.4,454.8 476,478.9 887.1,240 					"/>
					<polyline id="XMLID_388_" fill="#336A35" points="972.4,289.2 930.8,265.2 519.7,504.1 561.3,528.1 972.4,289.2 					"/>
					<polyline id="XMLID_387_" fill="#336A35" points="1057.6,338.4 1016,314.4 604.9,553.3 646.5,577.3 1057.6,338.4 					"/>
					<polyline id="XMLID_386_" fill="#336A35" points="1142.9,387.6 1101.3,363.6 690.2,602.5 731.8,626.5 1142.9,387.6 					"/>
					<polyline id="XMLID_385_" fill="#336A35" points="1228.1,436.8 1186.5,412.8 775.4,651.7 817,675.7 1228.1,436.8 					"/>
				</g>
			</g>
		</g>
		<polygon id="XMLID_26_" opacity="0.27" fill="#8B5E3C" points="816.3,897.7 639.9,897.7 64.8,551.7 263.9,437.8 		"/>
		<g id="XMLID_35_">
			<g id="XMLID_29_" enable-background="new    ">
				<defs>
					<polygon id="XMLID_406_" enable-background="new    " points="302.4,334 643.5,135.8 1158.1,432.9 817,631.1 					"/>
				</defs>
				<clipPath id="XMLID_4_">
					<use xlink:href="#XMLID_406_"  overflow="visible"/>
				</clipPath>
				<g id="XMLID_30_" clip-path="url(#XMLID_4_)">
					<path id="XMLID_401_" fill="#FFFFFF" d="M942.5,558.1l-2.1-1.2l-108.8,63.2c0.4,0.2,0.7,0.4,1.1,0.6l1,0.6L942.5,558.1
						 M1142.1,439.8l-110.8,64.4l2.1,1.2l110.7-64.3l-1-0.6C1142.7,440.2,1142.4,440,1142.1,439.8 M643.5,135.8L302.4,334L817,631.1
						l-16.9-9.7l1-0.6c0.3-0.2,0.7-0.4,1.1-0.6L562.8,481.9l-1,0.6l-2.1-1.2l1-0.6L320.4,342c-0.3,0.2-0.7,0.4-1,0.6l-1,0.6l-16-9.2
						l16.8-9.8l1,0.7c0.3,0.2,0.6,0.4,0.9,0.6l56.8-33l-2.1-1.2l195.6-113.7l2.1,1.2l58.1-33.8c-0.4-0.2-0.7-0.3-1.1-0.5l-1.2-0.6
						L643.5,135.8 M1141.3,423.2L659.4,145l-1.5,0.6c-0.3,0.1-0.7,0.3-1,0.4l240.8,139l1-0.6l2.1,1.2l-1,0.6l239.9,138.5
						c0.2-0.2,0.4-0.4,0.7-0.6L1141.3,423.2"/>
					<path id="XMLID_397_" fill="#FFFFFF" d="M686.3,410.2c-0.4-0.2-0.8-0.5-1.3-0.7c-0.3-0.2-0.6-0.3-0.8-0.5l-123.5,71.8l-1,0.6
						l2.1,1.2l1-0.6L686.3,410.2 M776.5,356.3c-0.3-0.2-0.6-0.3-0.9-0.5l-89.4,51.9c0.3,0.2,0.6,0.3,0.8,0.5
						c0.4,0.2,0.8,0.5,1.3,0.7l89.3-51.9C777.3,356.8,776.9,356.6,776.5,356.3 M900.8,285.5l-2.1-1.2l-1,0.6l-120,69.7
						c0.3,0.2,0.6,0.3,0.9,0.5c0.4,0.2,0.8,0.5,1.2,0.7l120-69.7L900.8,285.5"/>
					<path id="XMLID_394_" fill="#FFFFFF" d="M775.6,355.8c0.3,0.2,0.6,0.3,0.9,0.5c0.4,0.2,0.8,0.5,1.2,0.7
						c23.6,14.4,23.3,37.1-0.9,51.2c-24.2,14.1-63.5,14.3-88.4,0.7c-0.4-0.2-0.8-0.5-1.3-0.7c-0.3-0.2-0.6-0.3-0.8-0.5
						c-24-14.4-23.8-37.3,0.6-51.4C711.2,342.2,750.8,342,775.6,355.8 M778.5,355.1c-0.3-0.2-0.6-0.3-0.9-0.5
						c-26-14.5-67.5-14.3-93,0.5c-25.5,14.8-25.6,38.8-0.5,53.8c0.3,0.2,0.6,0.3,0.8,0.5c0.4,0.2,0.8,0.5,1.3,0.7
						c26,14.3,67.2,14,92.6-0.7c25.4-14.7,25.6-38.6,0.9-53.6C779.4,355.6,778.9,355.4,778.5,355.1"/>
					<path id="XMLID_393_" fill="#FFFFFF" d="M593.8,260.2l-2.7,1.6c1.5,10.7-5,21.2-18.2,28.8c-13.2,7.7-31.1,11.5-49.7,10.6
						l-2.7,1.6c20.3,1.4,40.1-2.7,54.5-11C589.4,283.4,596.2,271.9,593.8,260.2"/>
					<path id="XMLID_384_" fill="#FFFFFF" d="M996.8,492.5c-20.5-1.5-40.6,2.5-55.2,11c-14.5,8.4-21.4,20.1-18.7,32l1.6-0.1l1.2-0.7
						c-2.2-11.1,4.4-22,18-30c13.7-7.9,32.4-11.8,51.7-10.5l1.2-0.7L996.8,492.5"/>
					<path id="XMLID_379_" fill="#FFFFFF" d="M520.8,209.4l50.7-29.4l78.3,45.2L458.3,336.5L380,291.3l50-29.1l-2.1-1.2l90.8-52.8
						L520.8,209.4 M654,225.2l-80.4-46.4l-2.1-1.2L375.9,291.3l2.1,1.2l80.4,46.4l62.2-36.1l2.7-1.6l67.9-39.5l2.7-1.6L654,225.2"/>
					<path id="XMLID_159_" fill="#FFFFFF" d="M432.1,261l86.7-50.4l24.6,14.2l-86.7,50.4L432.1,261 M547.5,224.8l-26.7-15.4
						l-2.1-1.2L427.9,261l2.1,1.2l26.7,15.4L547.5,224.8"/>
					<path id="XMLID_156_" fill="#FFFFFF" d="M917.9,541.5l86.7-50.4l24.6,14.2l-86.7,50.4L917.9,541.5 M1033.4,505.4l-2.1-1.2
						l-26.7-15.4l-8,4.6l-1.2,0.7l-69.7,40.5l-1.2,0.7l-10.7,6.2l26.7,15.4l2.1,1.2L1033.4,505.4"/>
					<path id="XMLID_139_" fill="#FFFFFF" d="M633.8,143.8l9.7-5.7l11.3,6.5C648.1,146.8,639.9,146.5,633.8,143.8 M659.4,145
						l-15.9-9.2l-14,8.2l1.2,0.6c0.3,0.2,0.7,0.4,1.1,0.5c7.3,3.3,17.3,3.7,25.3,0.9c0.3-0.1,0.7-0.2,1-0.4L659.4,145"/>
					<path id="XMLID_136_" fill="#FFFFFF" d="M1144.1,438.6c-5.3-3.6-6.2-8.7-2.3-12.7l12.2,7L1144.1,438.6 M1158.1,432.9l-16.8-9.7
						l-1,0.8c-0.2,0.2-0.4,0.4-0.7,0.6c-5,4.8-4,11,2.4,15.2c0.3,0.2,0.7,0.4,1,0.6l1,0.6L1158.1,432.9"/>
					<path id="XMLID_130_" fill="#FFFFFF" d="M306.5,334l12.5-7.3c5.5,4.2,5.2,10.1-0.7,14.1L306.5,334 M319.2,324.2l-16.8,9.8
						l16,9.2l1-0.6c0.3-0.2,0.7-0.4,1-0.6c7-4.7,7.3-11.6,0.7-16.5c-0.3-0.2-0.6-0.4-0.9-0.6L319.2,324.2"/>
					<path id="XMLID_34_" fill="#FFFFFF" d="M804.3,621.4c7.2-3.6,18-3.6,25.3,0l-12.6,7.3L804.3,621.4 M833.8,621.4l-1-0.6
						c-0.3-0.2-0.7-0.4-1.1-0.6c-8.4-4.3-21-4.3-29.4,0c-0.4,0.2-0.7,0.4-1.1,0.6l-1,0.6l16.9,9.7L833.8,621.4"/>
				</g>
			</g>
		</g>
		<polygon id="XMLID_25_" fill="#754C29" points="222.8,396.6 816.3,741 816.3,897.7 222.2,554.7 		"/>
		<polygon id="XMLID_37_" fill="#A97C50" points="816.3,741 1228,502.1 1228,658.8 816.3,897.7 		"/>
		<polygon id="XMLID_49_" fill="#603913" points="222.2,519.7 816.3,861.2 816.3,897.7 222.2,554.7 		"/>
		<polygon id="XMLID_51_" fill="#8B5E3C" points="1228,658.8 816.3,897.7 816.3,861.2 1227.5,623.9 		"/>
		<polygon id="XMLID_52_" fill="#003607" points="222.8,396.6 816.3,741 816.3,708.7 222.2,365.8 		"/>
		<polygon id="XMLID_53_" fill="#285B2C" points="1228,502.1 816.3,741 816.3,708.7 1227.9,472.8 		"/>
		<polygon id="XMLID_348_" opacity="0.55" fill="#336A35" points="431.4,261.8 382.5,261.8 365,251.1 472.6,188.6 489.8,187.1 
			525.5,207.5 520.2,210.6 465.2,210.6 412,242.7 435.2,259.4 		"/>
		<g id="XMLID_378_">
			<g id="XMLID_347_" opacity="0.6">
				<g id="XMLID_536_">
					<g id="XMLID_545_" enable-background="new    ">
						<defs>
							<polygon id="XMLID_841_" enable-background="new    " points="392.6,237.7 406.8,184.9 498.2,134.2 484,187 							"/>
						</defs>
						<clipPath id="XMLID_5_">
							<use xlink:href="#XMLID_841_"  overflow="visible"/>
						</clipPath>
						<g id="XMLID_546_" clip-path="url(#XMLID_5_)">
							<polyline id="XMLID_840_" fill="#FFFFFF" points="400.8,207.3 392.6,237.7 484,187 491.9,157.5 483.7,162.1 490.9,158.1 
								489.3,164.2 489.8,164 489.5,164.9 489,165.2 487.3,171.5 487.8,171.2 487.6,172.2 487.1,172.5 485.3,178.8 485.8,178.5 
								485.6,179.5 485.1,179.8 483.2,186.6 476,190.6 475.9,191.1 474.9,191.6 475,191.2 467.8,195.2 467.7,195.6 466.7,196.2 
								466.8,195.7 459.6,199.7 459.5,200.2 458.5,200.7 458.6,200.3 451.4,204.2 451.3,204.7 450.3,205.3 450.4,204.8 443.2,208.8 
								443.1,209.3 442.1,209.8 442.2,209.3 435,213.3 434.9,213.8 433.9,214.4 434,213.9 426.8,217.9 426.7,218.3 425.7,218.9 
								425.8,218.4 418.6,222.4 418.5,222.9 417.5,223.4 417.6,223 410.4,227 410.3,227.4 409.3,228 409.4,227.5 402.2,231.5 
								402.1,232 401.1,232.5 401.2,232.1 393.8,236.2 395.7,229.3 395.2,229.6 395.4,228.7 395.9,228.4 397.6,222 397.1,222.3 
								397.4,221.4 397.9,221.1 399.6,214.7 399.1,215 399.4,214.1 399.9,213.8 401.5,207.7 408.9,203.5 400.5,208.2 400.8,207.3 
															"/>
							<path id="XMLID_835_" fill="#FFFFFF" d="M404.1,224.7l-1,0.6l-1.9,6.9l-0.1,0.5l1-0.6l0.1-0.5L404.1,224.7 M406.1,217.4
								l-1,0.6l-1.7,6.4l1-0.6L406.1,217.4 M408,210.1l-1,0.6l-1.7,6.4l1-0.6L408,210.1 M409.9,203l-1,0.6l-1.7,6.1l1-0.6L409.9,203
								"/>
							<path id="XMLID_830_" fill="#FFFFFF" d="M412.3,220.1l-1,0.6l-1.9,6.9l-0.1,0.5l1-0.6l0.1-0.5L412.3,220.1 M414.3,212.8
								l-1,0.6l-1.7,6.4l1-0.6L414.3,212.8 M416.2,205.5l-1,0.6l-1.7,6.4l1-0.6L416.2,205.5 M418.1,198.4l-1,0.6l-1.7,6.1l1-0.6
								L418.1,198.4"/>
							<path id="XMLID_825_" fill="#FFFFFF" d="M420.5,215.6l-1,0.6l-1.9,6.9l-0.1,0.5l1-0.6l0.1-0.5L420.5,215.6 M422.5,208.3
								l-1,0.6l-1.7,6.4l1-0.6L422.5,208.3 M424.4,201l-1,0.6l-1.7,6.4l1-0.6L424.4,201 M426.3,193.9l-1,0.6l-1.7,6.1l1-0.6
								L426.3,193.9"/>
							<path id="XMLID_816_" fill="#FFFFFF" d="M431.9,196l-7.2,4l-1,0.6l-7.2,4l-1,0.6l-7.2,4l-1,0.6l-7.4,4.1l-0.5,0.3l-0.3,0.9
								l0.5-0.3l7.4-4.1l1-0.6l7.2-4l1-0.6l7.2-4l1-0.6l7.2-4L431.9,196 M440.1,191.5l-7.2,4l-0.3,0.9l7.2-4L440.1,191.5 M448.3,187
								l-7.2,4l-0.3,0.9l7.2-4L448.3,187 M456.5,182.4l-7.2,4l-0.3,0.9l7.2-4L456.5,182.4 M464.7,177.9l-7.2,4l-0.3,0.9l7.2-4
								L464.7,177.9 M472.9,173.3l-7.2,4l-0.3,0.9l7.2-4L472.9,173.3 M481.1,168.8l-7.2,4l-0.3,0.9l7.2-4L481.1,168.8 M489.8,164
								l-0.5,0.3l-7.2,4l-0.3,0.9l7.2-4l0.5-0.3L489.8,164"/>
							<path id="XMLID_807_" fill="#FFFFFF" d="M429.9,203.3l-7.2,4l-1,0.6l-7.2,4l-1,0.6l-7.2,4l-1,0.6l-7.4,4.1l-0.5,0.3l-0.3,0.9
								l0.5-0.3l7.4-4.1l1-0.6l7.2-4l1-0.6l7.2-4l1-0.6l7.2-4L429.9,203.3 M438.1,198.8l-7.2,4l-0.3,0.9l7.2-4L438.1,198.8
								 M446.3,194.3l-7.2,4l-0.3,0.9l7.2-4L446.3,194.3 M454.5,189.7l-7.2,4l-0.3,0.9l7.2-4L454.5,189.7 M462.7,185.2l-7.2,4
								l-0.3,0.9l7.2-4L462.7,185.2 M470.9,180.6l-7.2,4l-0.3,0.9l7.2-4L470.9,180.6 M479.1,176.1l-7.2,4l-0.3,0.9l7.2-4
								L479.1,176.1 M487.8,171.2l-0.5,0.3l-7.2,4l-0.3,0.9l7.2-4l0.5-0.3L487.8,171.2"/>
							<path id="XMLID_798_" fill="#FFFFFF" d="M427.9,210.6l-7.2,4l-1,0.6l-7.2,4l-1,0.6l-7.2,4l-1,0.6l-7.4,4.1l-0.5,0.3l-0.3,0.9
								l0.5-0.3l7.4-4.1l1-0.6l7.2-4l1-0.6l7.2-4l1-0.6l7.2-4L427.9,210.6 M436.1,206.1l-7.2,4l-0.3,0.9l7.2-4L436.1,206.1
								 M444.4,201.5l-7.2,4l-0.3,0.9l7.2-4L444.4,201.5 M452.5,197l-7.2,4l-0.3,0.9l7.2-4L452.5,197 M460.7,192.5l-7.2,4l-0.3,0.9
								l7.2-4L460.7,192.5 M468.9,187.9l-7.2,4l-0.3,0.9l7.2-4L468.9,187.9 M477.1,183.4l-7.2,4l-0.3,0.9l7.2-4L477.1,183.4
								 M485.8,178.5l-0.5,0.3l-7.2,4l-0.3,0.9l7.2-4l0.5-0.3L485.8,178.5"/>
							<polyline id="XMLID_797_" fill="#FFFFFF" points="434.5,189.4 433.5,189.9 431.9,196 431.6,197 429.9,203.3 429.7,204.3 
								427.9,210.6 427.7,211.6 425.8,218.4 425.7,218.9 426.7,218.3 426.8,217.9 428.7,211 428.9,210.1 430.7,203.7 430.9,202.8 
								432.6,196.4 432.9,195.5 434.5,189.4 							"/>
							<polyline id="XMLID_796_" fill="#FFFFFF" points="442.7,184.8 441.7,185.4 440.1,191.5 439.8,192.4 438.1,198.8 437.9,199.7 
								436.1,206.1 435.9,207 434,213.9 433.9,214.4 434.9,213.8 435,213.3 436.9,206.5 437.1,205.5 438.9,199.2 439.1,198.2 
								440.8,191.9 441.1,190.9 442.7,184.8 							"/>
							<polyline id="XMLID_795_" fill="#FFFFFF" points="450.9,180.3 449.9,180.8 448.3,187 448,187.9 446.3,194.3 446.1,195.2 
								444.4,201.5 444.1,202.5 442.2,209.3 442.1,209.8 443.1,209.3 443.2,208.8 445.1,201.9 445.3,201 447.1,194.6 447.3,193.7 
								449,187.3 449.3,186.4 450.9,180.3 							"/>
							<polyline id="XMLID_794_" fill="#FFFFFF" points="459.1,175.7 458.1,176.3 456.5,182.4 456.2,183.3 454.5,189.7 454.3,190.6 
								452.5,197 452.3,197.9 450.4,204.8 450.3,205.3 451.3,204.7 451.4,204.2 453.3,197.4 453.6,196.4 455.3,190.1 455.5,189.2 
								457.2,182.8 457.5,181.9 459.1,175.7 							"/>
							<polyline id="XMLID_793_" fill="#FFFFFF" points="467.3,171.2 466.3,171.7 464.7,177.9 464.4,178.8 462.7,185.2 462.5,186.1 
								460.7,192.5 460.5,193.4 458.6,200.3 458.5,200.7 459.5,200.2 459.6,199.7 461.5,192.8 461.7,191.9 463.5,185.5 463.7,184.6 
								465.4,178.2 465.7,177.3 467.3,171.2 							"/>
							<polyline id="XMLID_792_" fill="#FFFFFF" points="475.5,166.6 474.5,167.2 472.9,173.3 472.6,174.3 470.9,180.6 470.7,181.5 
								468.9,187.9 468.7,188.8 466.8,195.7 466.7,196.2 467.7,195.6 467.8,195.2 469.7,188.3 470,187.4 471.7,181 471.9,180.1 
								473.6,173.7 473.9,172.8 475.5,166.6 							"/>
							<polyline id="XMLID_791_" fill="#FFFFFF" points="483.7,162.1 482.7,162.6 481.1,168.8 480.8,169.7 479.1,176.1 478.9,177 
								477.1,183.4 476.9,184.3 475,191.2 474.9,191.6 475.9,191.1 476,190.6 477.9,183.7 478.1,182.8 479.9,176.4 480.1,175.5 
								481.8,169.2 482.1,168.2 483.7,162.1 							"/>
							<polyline id="XMLID_790_" fill="#FFFFFF" points="498.2,134.2 497.7,134.5 497.5,135.4 489.8,139.7 497,135.7 495.3,142.1 
								495.8,141.8 495.5,142.7 495,143 493.3,149.4 493.8,149.1 493.5,150 493,150.3 491.2,157.2 484,161.2 483.9,161.6 
								482.9,162.2 483,161.7 475.8,165.7 475.7,166.2 474.7,166.7 474.8,166.2 467.6,170.2 467.5,170.7 466.5,171.3 466.6,170.8 
								459.4,174.8 459.3,175.3 458.3,175.8 458.4,175.3 451.2,179.3 451.1,179.8 450.1,180.4 450.2,179.9 443,183.9 442.9,184.3 
								441.9,184.9 442,184.4 434.8,188.4 434.7,188.9 433.7,189.4 433.8,189 426.6,193 426.5,193.4 425.5,194 425.6,193.5 
								418.4,197.5 418.3,198 417.3,198.5 417.4,198.1 410.2,202.1 410.1,202.5 409.1,203.1 409.2,202.6 401.8,206.7 403.6,199.9 
								403.1,200.1 403.4,199.2 403.9,198.9 405.6,192.6 405.1,192.8 405.3,191.9 405.8,191.6 407.6,185.3 415,181.2 407.1,185.6 
								407.3,184.6 406.8,184.9 400.8,207.3 400.5,208.2 408.9,203.5 409.9,203 417.1,199 418.1,198.4 425.3,194.5 426.3,193.9 
								433.5,189.9 434.5,189.4 441.7,185.4 442.7,184.8 449.9,180.8 450.9,180.3 458.1,176.3 459.1,175.7 466.3,171.7 467.3,171.2 
								474.5,167.2 475.5,166.6 482.7,162.6 483.7,162.1 491.9,157.5 498.2,134.2 							"/>
							<path id="XMLID_786_" fill="#FFFFFF" d="M412,195.2l-1,0.6l-1.9,6.9l-0.1,0.5l1-0.6l0.1-0.5L412,195.2 M414,187.9l-1,0.6
								l-1.7,6.4l1-0.6L414,187.9 M416,180.6l-1,0.6l-1.7,6.4l1-0.6L416,180.6"/>
							<path id="XMLID_782_" fill="#FFFFFF" d="M420.2,190.7l-1,0.6l-1.9,6.9l-0.1,0.5l1-0.6l0.1-0.5L420.2,190.7 M422.2,183.4
								l-1,0.6l-1.7,6.4l1-0.6L422.2,183.4 M424.2,176.1l-1,0.6l-1.7,6.4l1-0.6L424.2,176.1"/>
							<path id="XMLID_770_" fill="#FFFFFF" d="M428.4,186.1l-1,0.6l-1.9,6.9l-0.1,0.5l1-0.6l0.1-0.5L428.4,186.1 M430.4,178.8
								l-1,0.6l-1.7,6.4l1-0.6L430.4,178.8 M432.4,171.5l-1,0.6l-1.7,6.4l1-0.6L432.4,171.5"/>
							<polyline id="XMLID_769_" fill="#FFFFFF" points="497.7,134.5 407.3,184.6 407.1,185.6 415,181.2 416,180.6 423.2,176.6 
								424.2,176.1 431.4,172.1 432.4,171.5 439.6,167.5 439.7,167.1 440.7,166.5 440.6,167 447.8,163 447.9,162.5 448.9,162 
								448.8,162.4 456,158.4 456.1,158 457.1,157.4 457,157.9 464.2,153.9 464.3,153.4 465.3,152.9 465.2,153.3 472.4,149.4 
								472.5,148.9 473.5,148.3 473.4,148.8 480.6,144.8 480.7,144.3 481.7,143.8 481.6,144.2 488.8,140.3 488.9,139.8 489.9,139.2 
								489.8,139.7 497.5,135.4 497.7,134.5 							"/>
							<path id="XMLID_754_" fill="#FFFFFF" d="M437.9,173.9l-7.2,4l-1,0.6l-7.2,4l-1,0.6l-7.2,4l-1,0.6l-7.4,4.1l-0.5,0.3l-0.3,0.9
								l0.5-0.3l7.4-4.1l1-0.6l7.2-4l1-0.6l7.2-4l1-0.6l7.2-4L437.9,173.9 M446.1,169.3l-7.2,4l-0.3,0.9l7.2-4L446.1,169.3
								 M454.3,164.8l-7.2,4l-0.3,0.9l7.2-4L454.3,164.8 M462.5,160.3l-7.2,4l-0.3,0.9l7.2-4L462.5,160.3 M470.7,155.7l-7.2,4
								l-0.3,0.9l7.2-4L470.7,155.7 M478.9,151.2l-7.2,4l-0.3,0.9l7.2-4L478.9,151.2 M487.1,146.6l-7.2,4l-0.3,0.9l7.2-4
								L487.1,146.6 M495.8,141.8l-0.5,0.3l-7.2,4l-0.3,0.9l7.2-4l0.5-0.3L495.8,141.8"/>
							<path id="XMLID_745_" fill="#FFFFFF" d="M435.9,181.2l-7.2,4l-1,0.6l-7.2,4l-1,0.6l-7.2,4l-1,0.6l-7.4,4.1l-0.5,0.3l-0.3,0.9
								l0.5-0.3l7.4-4.1l1-0.6l7.2-4l1-0.6l7.2-4l1-0.6l7.2-4L435.9,181.2 M444.1,176.6l-7.2,4l-0.3,0.9l7.2-4L444.1,176.6
								 M452.3,172.1l-7.2,4l-0.3,0.9l7.2-4L452.3,172.1 M460.5,167.6l-7.2,4l-0.3,0.9l7.2-4L460.5,167.6 M468.7,163l-7.2,4
								l-0.3,0.9l7.2-4L468.7,163 M476.9,158.5l-7.2,4l-0.3,0.9l7.2-4L476.9,158.5 M485.1,153.9l-7.2,4l-0.3,0.9l7.2-4L485.1,153.9
								 M493.8,149.1l-0.5,0.3l-7.2,4l-0.3,0.9l7.2-4l0.5-0.3L493.8,149.1"/>
							<polyline id="XMLID_744_" fill="#FFFFFF" points="440.7,166.5 439.7,167.1 439.6,167.5 437.9,173.9 437.6,174.8 435.9,181.2 
								435.6,182.1 433.8,189 433.7,189.4 434.7,188.9 434.8,188.4 436.6,181.6 436.9,180.6 438.6,174.3 438.9,173.3 440.6,167 
								440.7,166.5 							"/>
							<polyline id="XMLID_743_" fill="#FFFFFF" points="448.9,162 447.9,162.5 447.8,163 446.1,169.3 445.8,170.3 444.1,176.6 
								443.8,177.6 442,184.4 441.9,184.9 442.9,184.3 443,183.9 444.8,177 445.1,176.1 446.8,169.7 447.1,168.8 448.8,162.4 
								448.9,162 							"/>
							<polyline id="XMLID_742_" fill="#FFFFFF" points="457.1,157.4 456.1,158 456,158.4 454.3,164.8 454,165.7 452.3,172.1 
								452,173 450.2,179.9 450.1,180.4 451.1,179.8 451.2,179.3 453,172.5 453.3,171.5 455,165.2 455.3,164.2 457,157.9 
								457.1,157.4 							"/>
							<polyline id="XMLID_741_" fill="#FFFFFF" points="465.3,152.9 464.3,153.4 464.2,153.9 462.5,160.3 462.2,161.2 460.5,167.6 
								460.2,168.5 458.4,175.3 458.3,175.8 459.3,175.3 459.4,174.8 461.2,167.9 461.5,167 463.2,160.6 463.5,159.7 465.2,153.3 
								465.3,152.9 							"/>
							<polyline id="XMLID_740_" fill="#FFFFFF" points="473.5,148.3 472.5,148.9 472.4,149.4 470.7,155.7 470.4,156.6 468.7,163 
								468.4,163.9 466.6,170.8 466.5,171.3 467.5,170.7 467.6,170.2 469.4,163.4 469.7,162.5 471.4,156.1 471.7,155.2 473.4,148.8 
								473.5,148.3 							"/>
							<polyline id="XMLID_739_" fill="#FFFFFF" points="481.7,143.8 480.7,144.3 480.6,144.8 478.9,151.2 478.6,152.1 476.9,158.5 
								476.6,159.4 474.8,166.2 474.7,166.7 475.7,166.2 475.8,165.7 477.6,158.8 477.9,157.9 479.6,151.5 479.9,150.6 481.6,144.2 
								481.7,143.8 							"/>
							<polyline id="XMLID_738_" fill="#FFFFFF" points="489.9,139.2 488.9,139.8 488.8,140.3 487.1,146.6 486.8,147.6 485.1,153.9 
								484.8,154.8 483,161.7 482.9,162.2 483.9,161.6 484,161.2 485.8,154.3 486.1,153.4 487.8,147 488.1,146.1 489.8,139.7 
								489.9,139.2 							"/>
						</g>
					</g>
				</g>
			</g>
			<g id="XMLID_61_">
				<g id="XMLID_88_" enable-background="new    ">
					<g id="XMLID_106_">
						<polygon id="XMLID_107_" fill="#A0A0A0" points="499.4,141.2 504.5,138.2 489.8,187.1 484.6,190.1 						"/>
					</g>
					<g id="XMLID_103_">
						<polygon id="XMLID_105_" fill="#898989" points="520.4,148.5 520.2,210.6 516,208.2 516.2,150.9 499.4,141.2 484.6,190.1 
							480.5,187.6 495.2,134 						"/>
					</g>
					<g id="XMLID_97_">
						<polygon id="XMLID_102_" fill="#C5C5C5" points="520.4,148.5 525.5,145.5 525.3,207.6 520.2,210.6 						"/>
					</g>
					<g id="XMLID_92_">
						<polygon id="XMLID_95_" fill="#DCDCDC" points="495.2,134 500.4,131 525.5,145.5 520.4,148.5 						"/>
					</g>
				</g>
			</g>
			<g id="XMLID_127_" opacity="0.7">
				<defs>
					<polygon id="XMLID_168_" opacity="0.7" points="499.5,140.8 484.5,189.9 516.2,207.8 516.3,150.5 					"/>
				</defs>
				<clipPath id="XMLID_6_">
					<use xlink:href="#XMLID_168_"  overflow="visible"/>
				</clipPath>
				<g id="XMLID_169_" clip-path="url(#XMLID_6_)">
					<g id="XMLID_171_" enable-background="new    ">
						<defs>
							<polygon id="XMLID_346_" enable-background="new    " points="484.5,189.9 484.8,87.1 518.2,106.4 517.9,209.2 							"/>
						</defs>
						<clipPath id="XMLID_7_">
							<use xlink:href="#XMLID_346_"  overflow="visible"/>
						</clipPath>
						<g id="XMLID_172_" clip-path="url(#XMLID_7_)">
							<path id="XMLID_343_" fill="#FFFFFF" d="M509.4,102.5l0-0.6l1,0.6l0,0.6l6.8,3.9l0,8.3l0.5,0.3l0,1.2l-0.5-0.3l0,8.1l0.5,0.3
								l0,1.2l-0.5-0.3l0,8.1l0.5,0.3l0,1.2l-0.5-0.3l0,8.1l0.5,0.3l0,1.2l-0.5-0.3l0,8.1l0.5,0.3l0,1.2l-0.5-0.3l0,8.1l0.5,0.3
								l0,1.2l-0.5-0.3l0,8.1l0.5,0.3l0,1.2l-0.5-0.3l0,8.1l0.5,0.3l0,1.2L517,181l0,8.1l0.5,0.3l0,1.2l-0.5-0.3l0,8.1l0.5,0.3
								l0,1.2l-0.5-0.3l0,8.1l-6.8-3.9l0,0.6l-1-0.6l0-0.6l-7-4.1l0,0.6l-1-0.6l0-0.6l-7-4.1l0,0.6l-1-0.6l0-0.6l-7.6-4.4l0-8.1
								L485,181l0-1.2l0.5,0.3l0-8.1l-0.5-0.3l0-1.2l0.5,0.3l0-8.1l-0.5-0.3l0-1.2l0.5,0.3l0-8.1l-0.5-0.3l0-1.2l0.5,0.3l0-8.1
								l-0.5-0.3l0-1.2l0.5,0.3l0-8.1l-0.5-0.3l0-1.2l0.5,0.3l0-8.1l-0.5-0.3l0-1.2l0.5,0.3l0-8.1l-0.5-0.3l0-1.2l0.5,0.3l0-8.1
								l-0.5-0.3l0-1.2l0.5,0.3l0-8.1l-0.5-0.3l0-1.2l0.5,0.3l0-8.3l7.6,4.4l0-0.6l1,0.6l0,0.6l7,4.1l0-0.6l1,0.6l0,0.6L509.4,102.5
								 M518.2,106.4l-33.4-19.3l-0.3,102.8l33.4,19.3L518.2,106.4"/>
							<path id="XMLID_338_" fill="#FFFFFF" d="M493.4,101.5l-7.6-4.4l-0.5-0.3l0,1.2l0.5,0.3l7.6,4.4L493.4,101.5 M501.4,106.2
								l-7-4.1l0,1.2l7,4.1L501.4,106.2 M509.4,110.8l-7-4.1l0,1.2l7,4.1L509.4,110.8 M517.7,115.6l-0.5-0.3l-6.8-3.9l0,1.2l6.8,3.9
								l0.5,0.3L517.7,115.6"/>
							<path id="XMLID_333_" fill="#FFFFFF" d="M493.3,110.7l-7.6-4.4l-0.5-0.3l0,1.2l0.5,0.3l7.6,4.4L493.3,110.7 M501.3,115.4
								l-7-4.1l0,1.2l7,4.1L501.3,115.4 M509.4,120l-7-4.1l0,1.2l7,4.1L509.4,120 M517.7,124.8l-0.5-0.3l-6.8-3.9l0,1.2l6.8,3.9
								l0.5,0.3L517.7,124.8"/>
							<path id="XMLID_328_" fill="#FFFFFF" d="M493.3,120l-7.6-4.4l-0.5-0.3l0,1.2l0.5,0.3l7.6,4.4L493.3,120 M501.3,124.6l-7-4.1
								l0,1.2l7,4.1L501.3,124.6 M509.3,129.2l-7-4.1l0,1.2l7,4.1L509.3,129.2 M517.6,134l-0.5-0.3l-6.8-3.9l0,1.2l6.8,3.9l0.5,0.3
								L517.6,134"/>
							<path id="XMLID_319_" fill="#FFFFFF" d="M510.2,195.5l-1-0.6l0,8.1l0,0.6l1,0.6l0-0.6L510.2,195.5 M510.2,186.3l-1-0.6l0,8.1
								l1,0.6L510.2,186.3 M510.2,177l-1-0.6l0,8.1l1,0.6L510.2,177 M510.2,167.8l-1-0.6l0,8.1l1,0.6L510.2,167.8 M510.3,158.6
								l-1-0.6l0,8.1l1,0.6L510.3,158.6 M510.3,149.4l-1-0.6l0,8.1l1,0.6L510.3,149.4 M510.3,140.2l-1-0.6l0,8.1l1,0.6L510.3,140.2
								 M510.4,102.5l-1-0.6l0,0.6l0,8.3l0,1.2l0,8.1l0,1.2l0,8.1l0,1.2l0,8.1l1,0.6l0-8.1l0-1.2l0-8.1l0-1.2l0-8.1l0-1.2l0-8.3
								L510.4,102.5"/>
							<path id="XMLID_310_" fill="#FFFFFF" d="M502.1,190.9l-1-0.6l0,8.1l0,0.6l1,0.6l0-0.6L502.1,190.9 M502.2,181.6l-1-0.6l0,8.1
								l1,0.6L502.2,181.6 M502.2,172.4l-1-0.6l0,8.1l1,0.6L502.2,172.4 M502.2,163.2l-1-0.6l0,8.1l1,0.6L502.2,163.2 M502.2,154
								l-1-0.6l0,8.1l1,0.6L502.2,154 M502.3,144.8l-1-0.6l0,8.1l1,0.6L502.3,144.8 M502.3,135.5l-1-0.6l0,8.1l1,0.6L502.3,135.5
								 M502.4,97.8l-1-0.6l0,0.6l0,8.3l0,1.2l0,8.1l0,1.2l0,8.1l0,1.2l0,8.1l1,0.6l0-8.1l0-1.2l0-8.1l0-1.2l0-8.1l0-1.2l0-8.3
								L502.4,97.8"/>
							<path id="XMLID_181_" fill="#FFFFFF" d="M494.1,186.2l-1-0.6l0,8.1l0,0.6l1,0.6l0-0.6L494.1,186.2 M494.1,177l-1-0.6l0,8.1
								l1,0.6L494.1,177 M494.2,167.8l-1-0.6l0,8.1l1,0.6L494.2,167.8 M494.2,158.6l-1-0.6l0,8.1l1,0.6L494.2,158.6 M494.2,149.3
								l-1-0.6l0,8.1l1,0.6L494.2,149.3 M494.2,140.1l-1-0.6l0,8.1l1,0.6L494.2,140.1 M494.3,130.9l-1-0.6l0,8.1l1,0.6L494.3,130.9
								 M494.4,93.2l-1-0.6l0,0.6l0,8.3l0,1.2l0,8.1l0,1.2l0,8.1l0,1.2l0,8.1l1,0.6l0-8.1l0-1.2l0-8.1l0-1.2l0-8.1l0-1.2l0-8.3
								L494.4,93.2"/>
							<polyline id="XMLID_179_" fill="#FFFFFF" points="517.6,143.2 517.1,142.9 510.3,139 509.3,138.4 502.3,134.4 501.3,133.8 
								494.3,129.8 493.3,129.2 485.7,124.8 485.2,124.5 485.2,125.7 485.7,126 493.3,130.3 494.3,130.9 501.3,135 502.3,135.5 
								509.3,139.6 510.3,140.2 517.1,144.1 517.6,144.4 517.6,143.2 							"/>
							<polyline id="XMLID_178_" fill="#FFFFFF" points="517.6,152.4 517.1,152.2 510.3,148.2 509.3,147.7 502.3,143.6 501.3,143 
								494.2,139 493.2,138.4 485.7,134 485.2,133.7 485.2,134.9 485.7,135.2 493.2,139.6 494.2,140.1 501.3,144.2 502.3,144.8 
								509.3,148.8 510.3,149.4 517.1,153.3 517.6,153.6 517.6,152.4 							"/>
							<polyline id="XMLID_177_" fill="#FFFFFF" points="517.5,161.7 517,161.4 510.3,157.5 509.3,156.9 502.2,152.8 501.2,152.2 
								494.2,148.2 493.2,147.6 485.6,143.2 485.1,143 485.1,144.1 485.6,144.4 493.2,148.8 494.2,149.3 501.2,153.4 502.2,154 
								509.3,158 510.3,158.6 517,162.5 517.5,162.8 517.5,161.7 							"/>
							<polyline id="XMLID_176_" fill="#FFFFFF" points="517.5,170.9 517,170.6 510.2,166.7 509.2,166.1 502.2,162 501.2,161.5 
								494.2,157.4 493.2,156.8 485.6,152.5 485.1,152.2 485.1,153.3 485.6,153.6 493.2,158 494.2,158.6 501.2,162.6 502.2,163.2 
								509.2,167.2 510.2,167.8 517,171.7 517.5,172 517.5,170.9 							"/>
							<polyline id="XMLID_175_" fill="#FFFFFF" points="517.5,180.1 517,179.8 510.2,175.9 509.2,175.3 502.2,171.3 501.2,170.7 
								494.2,166.6 493.2,166.1 485.6,161.7 485.1,161.4 485.1,162.5 485.6,162.8 493.2,167.2 494.2,167.8 501.2,171.8 502.2,172.4 
								509.2,176.5 510.2,177 517,181 517.5,181.3 517.5,180.1 							"/>
							<polyline id="XMLID_174_" fill="#FFFFFF" points="517.5,189.3 517,189 510.2,185.1 509.2,184.5 502.2,180.5 501.2,179.9 
								494.1,175.8 493.1,175.3 485.6,170.9 485.1,170.6 485.1,171.8 485.6,172 493.1,176.4 494.1,177 501.2,181 502.2,181.6 
								509.2,185.7 510.2,186.3 517,190.2 517.5,190.5 517.5,189.3 							"/>
							<polyline id="XMLID_173_" fill="#FFFFFF" points="517.4,198.5 516.9,198.2 510.2,194.3 509.2,193.8 502.1,189.7 501.1,189.1 
								494.1,185.1 493.1,184.5 485.5,180.1 485,179.8 485,181 485.5,181.3 493.1,185.6 494.1,186.2 501.1,190.3 502.1,190.9 
								509.2,194.9 510.2,195.5 516.9,199.4 517.4,199.7 517.4,198.5 							"/>
						</g>
					</g>
				</g>
			</g>
			<g id="XMLID_170_" opacity="0.8">
				<g id="XMLID_122_" enable-background="new    ">
					<defs>
						<polygon id="XMLID_279_" enable-background="new    " points="410.3,182.9 495.4,134 520.1,148.3 435.5,197.5 						"/>
					</defs>
					<clipPath id="XMLID_8_">
						<use xlink:href="#XMLID_279_"  overflow="visible"/>
					</clipPath>
					<g id="XMLID_124_" clip-path="url(#XMLID_8_)">
						<path id="XMLID_128_" fill="#FFFFFF" d="M412.7,183.2l6.8-4l3.3,1.9l-6.8,4L412.7,183.2 M416.9,185.7l6.8-4l6.7,3.9l-6.8,4
							L416.9,185.7 M424.6,190.1l6.8-4l6.7,3.9l-6.8,4L424.6,190.1 M432.2,194.5l6.8-4l3.2,1.9l-6.8,4L432.2,194.5 M420.5,178.7
							l6.6-3.9l3.3,1.9l-6.6,3.9L420.5,178.7 M424.7,181.2l6.6-3.9l6.7,3.9l-6.6,3.9L424.7,181.2 M432.4,185.6l6.6-3.9l6.7,3.9
							l-6.6,3.9L432.4,185.6 M440,190l6.6-3.9l3.2,1.9l-6.6,3.9L440,190 M428.1,174.3l6.6-3.9l3.3,1.9l-6.6,3.9L428.1,174.3
							 M432.3,176.8l6.6-3.9l6.7,3.9l-6.6,3.9L432.3,176.8 M439.9,181.2l6.6-3.9l6.7,3.9l-6.6,3.9L439.9,181.2 M447.6,185.6l6.6-3.9
							l3.2,1.9l-6.6,3.9L447.6,185.6 M435.6,169.9l6.6-3.9l3.3,1.9l-6.6,3.9L435.6,169.9 M439.9,172.3l6.6-3.9l6.7,3.9l-6.6,3.9
							L439.9,172.3 M447.5,176.7l6.6-3.9l6.7,3.9l-6.6,3.9L447.5,176.7 M455.2,181.2l6.6-3.9l3.2,1.9l-6.6,3.9L455.2,181.2
							 M443.2,165.5l6.6-3.9l3.3,1.9l-6.6,3.9L443.2,165.5 M447.5,167.9l6.6-3.9l6.7,3.9l-6.6,3.9L447.5,167.9 M455.1,172.3l6.6-3.9
							l6.7,3.9l-6.6,3.9L455.1,172.3 M462.7,176.8l6.6-3.9l3.2,1.9l-6.6,3.9L462.7,176.8 M450.8,161.1l6.6-3.9l3.3,1.9l-6.6,3.9
							L450.8,161.1 M455.1,163.5l6.6-3.9l6.7,3.9l-6.6,3.9L455.1,163.5 M462.7,167.9l6.6-3.9l6.7,3.9l-6.6,3.9L462.7,167.9
							 M470.3,172.3l6.6-3.9l3.2,1.9l-6.6,3.9L470.3,172.3 M458.4,156.7l6.6-3.9l3.3,1.9l-6.6,3.9L458.4,156.7 M462.6,159.1l6.6-3.9
							l6.7,3.9l-6.6,3.9L462.6,159.1 M470.3,163.5l6.6-3.9l6.7,3.9l-6.6,3.9L470.3,163.5 M477.9,167.9l6.6-3.9l3.2,1.9l-6.6,3.9
							L477.9,167.9 M466,152.3l6.6-3.9l3.3,1.9l-6.6,3.9L466,152.3 M470.2,154.7l6.6-3.9l6.7,3.9l-6.6,3.9L470.2,154.7 M477.9,159.1
							l6.6-3.9l6.7,3.9l-6.6,3.9L477.9,159.1 M485.5,163.5l6.6-3.9l3.2,1.9l-6.6,3.9L485.5,163.5 M473.6,147.9l6.6-3.9l3.3,1.9
							l-6.6,3.9L473.6,147.9 M477.8,150.3l6.6-3.9l6.7,3.9l-6.6,3.9L477.8,150.3 M485.4,154.7l6.6-3.9l6.7,3.9l-6.6,3.9L485.4,154.7
							 M493.1,159.1l6.6-3.9l3.2,1.9l-6.6,3.9L493.1,159.1 M481.2,143.4l6.6-3.9l3.3,1.9l-6.6,3.9L481.2,143.4 M485.4,145.9l6.6-3.9
							l6.7,3.9l-6.6,3.9L485.4,145.9 M493,150.3l6.6-3.9l6.7,3.9l-6.6,3.9L493,150.3 M500.7,154.7l6.6-3.9l3.2,1.9l-6.6,3.9
							L500.7,154.7 M488.7,139l6.6-3.9l3.3,1.9l-6.6,3.9L488.7,139 M493,141.5l6.6-3.9l6.7,3.9l-6.6,3.9L493,141.5 M500.6,145.9
							l6.6-3.9l6.7,3.9l-6.6,3.9L500.6,145.9 M508.2,150.3l6.6-3.9l3.2,1.9l-6.6,3.9L508.2,150.3 M520.1,148.3L495.4,134l-85.1,48.9
							l25.2,14.6L520.1,148.3"/>
					</g>
				</g>
			</g>
			<g id="XMLID_55_">
				<g id="XMLID_65_" enable-background="new    ">
					<g id="XMLID_100_">
						<polygon id="XMLID_101_" fill="#888888" points="521.4,209.9 516.2,206.9 516,149.6 521.2,152.6 						"/>
					</g>
					<g id="XMLID_98_">
						<polygon id="XMLID_99_" fill="#C5C5C5" points="525.3,145.4 525.5,207.5 521.4,209.9 521.2,152.6 435.4,202.2 435.5,259.4 
							431.4,261.8 431.2,199.8 						"/>
					</g>
					<g id="XMLID_87_">
						<polygon id="XMLID_90_" fill="#888888" points="431.4,261.8 426.2,258.8 426,196.8 431.2,199.8 						"/>
					</g>
					<g id="XMLID_79_">
						<polygon id="XMLID_84_" fill="#DBDBDB" points="431.2,199.8 426,196.8 520.2,142.4 525.3,145.4 						"/>
					</g>
				</g>
			</g>
			<g id="XMLID_62_">
				<g id="XMLID_82_" enable-background="new    ">
					<g id="XMLID_94_">
						<polygon id="XMLID_96_" fill="#A0A0A0" points="409.2,193.1 414.4,190.1 399.7,238.9 394.5,241.9 						"/>
					</g>
					<g id="XMLID_91_">
						<polygon id="XMLID_93_" fill="#898989" points="430.2,200.4 430,262.4 425.9,260 426.1,202.8 409.2,193.1 394.5,241.9 
							390.4,239.5 405.1,185.9 						"/>
					</g>
					<g id="XMLID_86_">
						<polygon id="XMLID_89_" fill="#C5C5C5" points="430.2,200.4 435.4,197.4 435.2,259.4 430,262.4 						"/>
					</g>
					<g id="XMLID_83_">
						<polygon id="XMLID_85_" fill="#DCDCDC" points="405.1,185.9 410.3,182.9 435.4,197.4 430.2,200.4 						"/>
					</g>
				</g>
			</g>
			<g id="XMLID_125_" opacity="0.7">
				<defs>
					<polygon id="XMLID_123_" opacity="0.7" points="409.4,192.7 394.4,241.7 426,259.6 426.2,202.4 					"/>
				</defs>
				<clipPath id="XMLID_9_">
					<use xlink:href="#XMLID_123_"  overflow="visible"/>
				</clipPath>
				<g id="XMLID_121_" clip-path="url(#XMLID_9_)">
					<g id="XMLID_180_" enable-background="new    ">
						<defs>
							<polygon id="XMLID_304_" enable-background="new    " points="394.4,241.7 394.7,139 428.1,158.2 427.8,261 							"/>
						</defs>
						<clipPath id="XMLID_10_">
							<use xlink:href="#XMLID_304_"  overflow="visible"/>
						</clipPath>
						<g id="XMLID_182_" clip-path="url(#XMLID_10_)">
							<path id="XMLID_301_" fill="#FFFFFF" d="M419.3,154.3l0-0.6l1,0.6l0,0.6l6.8,3.9l0,8.3l0.5,0.3l0,1.2l-0.5-0.3l0,8.1l0.5,0.3
								l0,1.2l-0.5-0.3l0,8.1l0.5,0.3l0,1.2l-0.5-0.3l0,8.1l0.5,0.3l0,1.2l-0.5-0.3l0,8.1l0.5,0.3l0,1.2l-0.5-0.3l0,8.1l0.5,0.3
								l0,1.2l-0.5-0.3l0,8.1l0.5,0.3l0,1.2l-0.5-0.3l0,8.1l0.5,0.3l0,1.2l-0.5-0.3l0,8.1l0.5,0.3l0,1.2l-0.5-0.3l0,8.1l0.5,0.3
								l0,1.2l-0.5-0.3l0,8.1l-6.8-3.9l0,0.6l-1-0.6l0-0.6l-7-4.1l0,0.6l-1-0.6l0-0.6l-7-4.1l0,0.6l-1-0.6l0-0.6l-7.6-4.4l0-8.1
								l-0.5-0.3l0-1.2l0.5,0.3l0-8.1l-0.5-0.3l0-1.2l0.5,0.3l0-8.1l-0.5-0.3l0-1.2l0.5,0.3l0-8.1l-0.5-0.3l0-1.2l0.5,0.3l0-8.1
								l-0.5-0.3l0-1.2l0.5,0.3l0-8.1l-0.5-0.3l0-1.2l0.5,0.3l0-8.1l-0.5-0.3l0-1.2l0.5,0.3l0-8.1l-0.5-0.3l0-1.2l0.5,0.3l0-8.1
								l-0.5-0.3l0-1.2l0.5,0.3l0-8.1l-0.5-0.3l0-1.2l0.5,0.3l0-8.3l7.6,4.4l0-0.6l1,0.6l0,0.6l7,4.1l0-0.6l1,0.6l0,0.6L419.3,154.3
								 M428.1,158.2L394.7,139l-0.3,102.8l33.4,19.3L428.1,158.2"/>
							<path id="XMLID_296_" fill="#FFFFFF" d="M403.2,153.4l-7.6-4.4l-0.5-0.3l0,1.2l0.5,0.3l7.6,4.4L403.2,153.4 M411.2,158
								l-7-4.1l0,1.2l7,4.1L411.2,158 M419.3,162.6l-7-4.1l0,1.2l7,4.1L419.3,162.6 M427.5,167.4l-0.5-0.3l-6.8-3.9l0,1.2l6.8,3.9
								l0.5,0.3L427.5,167.4"/>
							<path id="XMLID_291_" fill="#FFFFFF" d="M403.2,162.6l-7.6-4.4l-0.5-0.3l0,1.2l0.5,0.3l7.6,4.4L403.2,162.6 M411.2,167.2
								l-7-4.1l0,1.2l7,4.1L411.2,167.2 M419.2,171.8l-7-4.1l0,1.2l7,4.1L419.2,171.8 M427.5,176.6l-0.5-0.3l-6.8-3.9l0,1.2l6.8,3.9
								l0.5,0.3L427.5,176.6"/>
							<path id="XMLID_286_" fill="#FFFFFF" d="M403.2,171.8l-7.6-4.4l-0.5-0.3l0,1.2l0.5,0.3l7.6,4.4L403.2,171.8 M411.2,176.4
								l-7-4.1l0,1.2l7,4.1L411.2,176.4 M419.2,181.1l-7-4.1l0,1.2l7,4.1L419.2,181.1 M427.5,185.9l-0.5-0.3l-6.8-3.9l0,1.2l6.8,3.9
								l0.5,0.3L427.5,185.9"/>
							<path id="XMLID_248_" fill="#FFFFFF" d="M420,247.3l-1-0.6l0,8.1l0,0.6l1,0.6l0-0.6L420,247.3 M420.1,238.1l-1-0.6l0,8.1
								l1,0.6L420.1,238.1 M420.1,228.9l-1-0.6l0,8.1l1,0.6L420.1,228.9 M420.1,219.7l-1-0.6l0,8.1l1,0.6L420.1,219.7 M420.1,210.5
								l-1-0.6l0,8.1l1,0.6L420.1,210.5 M420.2,201.2l-1-0.6l0,8.1l1,0.6L420.2,201.2 M420.2,192l-1-0.6l0,8.1l1,0.6L420.2,192
								 M420.3,154.3l-1-0.6l0,0.6l0,8.3l0,1.2l0,8.1l0,1.2l0,8.1l0,1.2l0,8.1l1,0.6l0-8.1l0-1.2l0-8.1l0-1.2l0-8.1l0-1.2l0-8.3
								L420.3,154.3"/>
							<path id="XMLID_239_" fill="#FFFFFF" d="M412,242.7l-1-0.6l0,8.1l0,0.6l1,0.6l0-0.6L412,242.7 M412,233.5l-1-0.6l0,8.1l1,0.6
								L412,233.5 M412.1,224.3l-1-0.6l0,8.1l1,0.6L412.1,224.3 M412.1,215l-1-0.6l0,8.1l1,0.6L412.1,215 M412.1,205.8l-1-0.6l0,8.1
								l1,0.6L412.1,205.8 M412.1,196.6l-1-0.6l0,8.1l1,0.6L412.1,196.6 M412.2,187.4l-1-0.6l0,8.1l1,0.6L412.2,187.4 M412.3,149.7
								l-1-0.6l0,0.6l0,8.3l0,1.2l0,8.1l0,1.2l0,8.1l0,1.2l0,8.1l1,0.6l0-8.1l0-1.2l0-8.1l0-1.2l0-8.1l0-1.2l0-8.3L412.3,149.7"/>
							<path id="XMLID_193_" fill="#FFFFFF" d="M404,238.1l-1-0.6l0,8.1l0,0.6l1,0.6l0-0.6L404,238.1 M404,228.8l-1-0.6l0,8.1l1,0.6
								L404,228.8 M404,219.6l-1-0.6l0,8.1l1,0.6L404,219.6 M404.1,210.4l-1-0.6l0,8.1l1,0.6L404.1,210.4 M404.1,201.2l-1-0.6l0,8.1
								l1,0.6L404.1,201.2 M404.1,192l-1-0.6l0,8.1l1,0.6L404.1,192 M404.1,182.7l-1-0.6l0,8.1l1,0.6L404.1,182.7 M404.2,145.1
								l-1-0.6l0,0.6l0,8.3l0,1.2l0,8.1l0,1.2l0,8.1l0,1.2l0,8.1l1,0.6l0-8.1l0-1.2l0-8.1l0-1.2l0-8.1l0-1.2l0-8.3L404.2,145.1"/>
							<polyline id="XMLID_192_" fill="#FFFFFF" points="427.5,195.1 427,194.8 420.2,190.9 419.2,190.3 412.2,186.2 411.2,185.7 
								404.1,181.6 403.1,181 395.6,176.6 395.1,176.4 395.1,177.5 395.6,177.8 403.1,182.2 404.1,182.7 411.2,186.8 412.2,187.4 
								419.2,191.4 420.2,192 427,195.9 427.5,196.2 427.5,195.1 							"/>
							<polyline id="XMLID_191_" fill="#FFFFFF" points="427.4,204.3 426.9,204 420.2,200.1 419.2,199.5 412.1,195.5 411.1,194.9 
								404.1,190.8 403.1,190.2 395.5,185.9 395,185.6 395,186.7 395.5,187 403.1,191.4 404.1,192 411.1,196 412.1,196.6 
								419.2,200.7 420.2,201.2 426.9,205.2 427.4,205.4 427.4,204.3 							"/>
							<polyline id="XMLID_190_" fill="#FFFFFF" points="427.4,213.5 426.9,213.2 420.1,209.3 419.1,208.7 412.1,204.7 411.1,204.1 
								404.1,200 403.1,199.5 395.5,195.1 395,194.8 395,195.9 395.5,196.2 403.1,200.6 404.1,201.2 411.1,205.2 412.1,205.8 
								419.1,209.9 420.1,210.5 426.9,214.4 427.4,214.7 427.4,213.5 							"/>
							<polyline id="XMLID_189_" fill="#FFFFFF" points="427.4,222.7 426.9,222.4 420.1,218.5 419.1,217.9 412.1,213.9 411.1,213.3 
								404.1,209.3 403.1,208.7 395.5,204.3 395,204 395,205.2 395.5,205.4 403.1,209.8 404.1,210.4 411.1,214.5 412.1,215 
								419.1,219.1 420.1,219.7 426.9,223.6 427.4,223.9 427.4,222.7 							"/>
							<polyline id="XMLID_188_" fill="#FFFFFF" points="427.4,231.9 426.9,231.7 420.1,227.7 419.1,227.2 412.1,223.1 411.1,222.5 
								404,218.5 403,217.9 395.5,213.5 395,213.2 395,214.4 395.5,214.7 403,219.1 404,219.6 411.1,223.7 412.1,224.3 419.1,228.3 
								420.1,228.9 426.9,232.8 427.4,233.1 427.4,231.9 							"/>
							<polyline id="XMLID_187_" fill="#FFFFFF" points="427.3,241.2 426.8,240.9 420.1,237 419.1,236.4 412,232.3 411,231.7 
								404,227.7 403,227.1 395.4,222.7 394.9,222.5 394.9,223.6 395.4,223.9 403,228.3 404,228.8 411,232.9 412,233.5 419.1,237.5 
								420.1,238.1 426.8,242 427.3,242.3 427.3,241.2 							"/>
							<polyline id="XMLID_186_" fill="#FFFFFF" points="427.3,250.4 426.8,250.1 420,246.2 419,245.6 412,241.5 411,241 404,236.9 
								403,236.3 395.4,232 394.9,231.7 394.9,232.8 395.4,233.1 403,237.5 404,238.1 411,242.1 412,242.7 419,246.8 420,247.3 
								426.8,251.2 427.3,251.5 427.3,250.4 							"/>
						</g>
					</g>
				</g>
			</g>
		</g>
		<polygon id="XMLID_349_" opacity="0.55" fill="#336A35" points="979.7,580.5 934.7,580.5 882.1,553.4 970.4,498 1026.6,498 
			1074.9,526.6 1069.7,529.6 1004.4,529.6 958.4,558.5 984.8,577.5 		"/>
		<g id="XMLID_27_">
			<g id="XMLID_416_">
				<g id="XMLID_417_" enable-background="new    ">
					<g id="XMLID_424_">
						<polygon id="XMLID_425_" fill="#888888" points="1031.7,506.1 1026.6,503 1026.4,445.8 1031.6,448.8 						"/>
					</g>
					<g id="XMLID_422_">
						<polygon id="XMLID_423_" fill="#C5C5C5" points="1035.7,441.6 1035.9,503.6 1031.7,506.1 1031.6,448.8 945.8,498.3 
							945.9,555.6 941.8,558 941.6,495.9 						"/>
					</g>
					<g id="XMLID_420_">
						<polygon id="XMLID_421_" fill="#888888" points="941.8,558 936.6,555 936.4,492.9 941.6,495.9 						"/>
					</g>
					<g id="XMLID_418_">
						<polygon id="XMLID_419_" fill="#DBDBDB" points="941.6,495.9 936.4,492.9 1030.6,438.6 1035.7,441.6 						"/>
					</g>
				</g>
			</g>
			<g id="XMLID_544_" opacity="0.6">
				<g id="XMLID_407_">
					<g id="XMLID_409_" enable-background="new    ">
						<defs>
							<polygon id="XMLID_779_" enable-background="new    " points="982.8,574.8 966.2,508.2 1058.1,457.2 1074.7,523.9 							"/>
						</defs>
						<clipPath id="XMLID_11_">
							<use xlink:href="#XMLID_779_"  overflow="visible"/>
						</clipPath>
						<g id="XMLID_535_" clip-path="url(#XMLID_11_)">
							<path id="XMLID_733_" fill="#FFFFFF" d="M1006.6,518.4l-5,2.9L1006.6,518.4L1006.6,518.4 M1064.7,486.1l-0.5,0.3l-0.5,0.3
								l2,7.4l0.5-0.3l0.3,1.2l-0.5,0.3l2,7.7l0.5-0.3l0.3,1.2l-0.5,0.3l2,7.7l0.5-0.3l0.3,1.2l-0.5,0.3l2.2,8.3l-7.2,4.2l0.2,0.6
								l-1,0.6l-0.2-0.6l-7.2,4.2l0.2,0.6l-0.9,0.5l-0.2-0.6l-7.2,4.2l0.2,0.6l-1,0.6l-0.2-0.6l-7.2,4.2l0.2,0.6l-1,0.6l-0.2-0.6
								l-7.2,4.2l0.2,0.6l-0.9,0.5l-0.2-0.6l-7.2,4.2l0.2,0.6l-1,0.6l-0.2-0.6l-7.2,4.2l0.2,0.6l-0.9,0.5l-0.2-0.6l-7.2,4.2l0.2,0.6
								l-1,0.6l-0.2-0.6l-7.2,4.2l0.2,0.6l-0.9,0.5l-0.2-0.6l-7.2,4.2l0.2,0.6l-1,0.6l-0.2-0.6l-7.4,4.3l-2.2-8.3l-0.5,0.3l-0.3-1.2
								l0.5-0.3l-2-7.7l-0.5,0.3l-0.3-1.2l0.5-0.3l-2-7.7l-0.5,0.3l-0.3-1.2l0.5-0.3l-2-7.4l-1,0.6l-0.3-1.2l0,0l9.8,36.9l89.9-52.3
								l0.5-0.3L1064.7,486.1 M1014.7,513.7l-7.2,4.2l0,0L1014.7,513.7L1014.7,513.7 M1022.9,509l-7.2,4.2l0,0L1022.9,509
								L1022.9,509 M1031,504.3l-7.2,4.2l0,0L1031,504.3L1031,504.3 M1039.1,499.6l-7.2,4.2l0,0L1039.1,499.6L1039.1,499.6
								 M1047.2,494.9l-7.2,4.2l0,0L1047.2,494.9L1047.2,494.9 M1055.3,490.1l-7.2,4.2l0,0L1055.3,490.1L1055.3,490.1 M1063.4,485.4
								l-7.2,4.2l0,0L1063.4,485.4L1063.4,485.4"/>
							<path id="XMLID_728_" fill="#FFFFFF" d="M990.5,559.4l-1,0.6l2.2,8.3l0.2,0.6l1-0.6l-0.2-0.6L990.5,559.4 M988.2,550.6
								l-1,0.6l2,7.7l1-0.6L988.2,550.6 M985.8,541.8l-1,0.6l2,7.7l1-0.6L985.8,541.8 M983.6,533.2l-1,0.6l2,7.4l1-0.6L983.6,533.2"
								/>
							<path id="XMLID_723_" fill="#FFFFFF" d="M998.6,554.7l-0.9,0.5l2.2,8.3l0.2,0.6l0.9-0.5l-0.2-0.6L998.6,554.7 M996.3,545.9
								l-0.9,0.5l2,7.7l0.9-0.5L996.3,545.9 M993.9,537.1l-0.9,0.6l2,7.7l0.9-0.5L993.9,537.1 M991.7,528.5l-1,0.6l2,7.4l0.9-0.6
								L991.7,528.5"/>
							<path id="XMLID_718_" fill="#FFFFFF" d="M1006.8,550l-1,0.6l2.2,8.3l0.2,0.6l1-0.6l-0.2-0.6L1006.8,550 M1004.4,541.2l-1,0.6
								l2,7.7l1-0.6L1004.4,541.2 M1002.1,532.4l-1,0.6l2,7.7l1-0.6L1002.1,532.4 M999.8,523.8l-1,0.6l2,7.4l1-0.6L999.8,523.8"/>
							<path id="XMLID_709_" fill="#FFFFFF" d="M1008.9,527l-7.2,4.2l-1,0.6l-7.2,4.2l-0.9,0.6l-7.2,4.2l-1,0.6l-7.4,4.3l-0.5,0.3
								l0.3,1.2l0.5-0.3l7.4-4.3l1-0.6l7.2-4.2l0.9-0.6l7.2-4.2l1-0.6l7.2-4.2L1008.9,527 M1017,522.3l-7.2,4.2l0.3,1.2l7.2-4.2
								L1017,522.3 M1025.1,517.6l-7.2,4.2l0.3,1.2l7.2-4.2L1025.1,517.6 M1033.3,512.9l-7.2,4.2l0.3,1.2l7.2-4.2L1033.3,512.9
								 M1041.4,508.1l-7.2,4.2l0.3,1.2l7.2-4.2L1041.4,508.1 M1049.5,503.4l-7.2,4.2l0.3,1.2l7.2-4.2L1049.5,503.4 M1057.6,498.7
								l-7.2,4.2l0.3,1.2l7.2-4.2L1057.6,498.7 M1066.2,493.7l-0.5,0.3l-7.2,4.2l0.3,1.2l7.2-4.2l0.5-0.3L1066.2,493.7"/>
							<path id="XMLID_700_" fill="#FFFFFF" d="M1011.3,535.8l-7.2,4.2l-1,0.6l-7.2,4.2l-0.9,0.5l-7.2,4.2l-1,0.6l-7.4,4.3l-0.5,0.3
								l0.3,1.2l0.5-0.3l7.4-4.3l1-0.6l7.2-4.2l0.9-0.5l7.2-4.2l1-0.6l7.2-4.2L1011.3,535.8 M1019.4,531.1l-7.2,4.2l0.3,1.2l7.2-4.2
								L1019.4,531.1 M1027.5,526.4l-7.2,4.2l0.3,1.2l7.2-4.2L1027.5,526.4 M1035.6,521.7l-7.2,4.2l0.3,1.2l7.2-4.2L1035.6,521.7
								 M1043.7,517l-7.2,4.2l0.3,1.2l7.2-4.2L1043.7,517 M1051.8,512.3l-7.2,4.2l0.3,1.2l7.2-4.2L1051.8,512.3 M1059.9,507.6
								l-7.2,4.2l0.3,1.2l7.2-4.2L1059.9,507.6 M1068.5,502.6l-0.5,0.3l-7.2,4.2l0.3,1.2l7.2-4.2l0.5-0.3L1068.5,502.6"/>
							<path id="XMLID_600_" fill="#FFFFFF" d="M1013.6,544.7l-7.2,4.2l-1,0.6l-7.2,4.2l-0.9,0.5l-7.2,4.2l-1,0.6l-7.4,4.3l-0.5,0.3
								l0.3,1.2l0.5-0.3l7.4-4.3l1-0.6l7.2-4.2l0.9-0.5l7.2-4.2l1-0.6l7.2-4.2L1013.6,544.7 M1021.7,540l-7.2,4.2l0.3,1.2l7.2-4.2
								L1021.7,540 M1029.8,535.2l-7.2,4.2l0.3,1.2l7.2-4.2L1029.8,535.2 M1038,530.5l-7.2,4.2l0.3,1.2l7.2-4.2L1038,530.5
								 M1046.1,525.8l-7.2,4.2l0.3,1.2l7.2-4.2L1046.1,525.8 M1054.2,521.1l-7.2,4.2l0.3,1.2l7.2-4.2L1054.2,521.1 M1062.3,516.4
								l-7.2,4.2l0.3,1.2l7.2-4.2L1062.3,516.4 M1070.9,511.4l-0.5,0.3l-7.2,4.2l0.3,1.2l7.2-4.2l0.5-0.3L1070.9,511.4"/>
							<polyline id="XMLID_599_" fill="#FFFFFF" points="1007.9,519.1 1007,519.6 1008.9,527 1009.2,528.2 1011.3,535.8 1011.6,537 
								1013.6,544.7 1013.9,545.9 1016.1,554.1 1016.3,554.7 1017.2,554.2 1017.1,553.6 1014.9,545.3 1014.6,544.1 1012.5,536.5 
								1012.2,535.3 1010.2,527.6 1009.9,526.5 1007.9,519.1 							"/>
							<polyline id="XMLID_598_" fill="#FFFFFF" points="1016,514.4 1015.1,514.9 1017,522.3 1017.3,523.5 1019.4,531.1 
								1019.7,532.3 1021.7,540 1022,541.1 1024.2,549.4 1024.4,550 1025.3,549.4 1025.2,548.9 1023,540.6 1022.7,539.4 
								1020.6,531.8 1020.3,530.6 1018.3,522.9 1018,521.7 1016,514.4 							"/>
							<polyline id="XMLID_597_" fill="#FFFFFF" points="1024.1,509.6 1023.2,510.2 1025.1,517.6 1025.5,518.8 1027.5,526.4 
								1027.8,527.6 1029.8,535.2 1030.2,536.4 1032.4,544.7 1032.5,545.3 1033.5,544.7 1033.3,544.1 1031.1,535.9 1030.8,534.7 
								1028.7,527 1028.4,525.9 1026.4,518.2 1026.1,517 1024.1,509.6 							"/>
							<polyline id="XMLID_596_" fill="#FFFFFF" points="1032.2,504.9 1031.3,505.5 1033.3,512.9 1033.6,514 1035.6,521.7 
								1035.9,522.9 1038,530.5 1038.3,531.7 1040.5,540 1040.6,540.6 1041.6,540 1041.4,539.4 1039.2,531.2 1038.9,530 
								1036.9,522.3 1036.6,521.1 1034.5,513.5 1034.2,512.3 1032.2,504.9 							"/>
							<polyline id="XMLID_595_" fill="#FFFFFF" points="1040.4,500.2 1039.4,500.8 1041.4,508.1 1041.7,509.3 1043.7,517 
								1044,518.2 1046.1,525.8 1046.4,527 1048.6,535.3 1048.7,535.8 1049.7,535.3 1049.5,534.7 1047.3,526.4 1047,525.3 
								1045,517.6 1044.7,516.4 1042.6,508.8 1042.3,507.6 1040.4,500.2 							"/>
							<polyline id="XMLID_594_" fill="#FFFFFF" points="1048.5,495.5 1047.5,496 1049.5,503.4 1049.8,504.6 1051.8,512.3 
								1052.1,513.4 1054.2,521.1 1054.5,522.3 1056.7,530.5 1056.9,531.1 1057.8,530.6 1057.6,530 1055.4,521.7 1055.1,520.5 
								1053.1,512.9 1052.8,511.7 1050.7,504.1 1050.4,502.9 1048.5,495.5 							"/>
							<polyline id="XMLID_593_" fill="#FFFFFF" points="1056.6,490.8 1055.6,491.3 1057.6,498.7 1057.9,499.9 1059.9,507.6 
								1060.3,508.7 1062.3,516.4 1062.6,517.6 1064.8,525.8 1065,526.4 1065.9,525.9 1065.8,525.3 1063.6,517 1063.2,515.8 
								1061.2,508.2 1060.9,507 1058.9,499.3 1058.5,498.2 1056.6,490.8 							"/>
							<path id="XMLID_587_" fill="#FFFFFF" d="M1024.1,478.4l-5.8,3.3L1024.1,478.4L1024.1,478.4 M1032.2,473.6l-7.2,4.2l0,0
								L1032.2,473.6L1032.2,473.6 M1040.3,468.9l-7.2,4.2v0L1040.3,468.9L1040.3,468.9 M1048.4,464.2l-7.2,4.2l0,0L1048.4,464.2
								L1048.4,464.2 M1057.2,457.8L967.2,510l89.5-52l0.3,1.2l-7.6,4.4l0,0l7.2-4.2l2,7.7l0.5-0.3l0.3,1.2l-0.5,0.3l2,7.7l0.5-0.3
								l0.3,1.2l-0.5,0.3l2.2,8.3l0,0l-7.2,4.2l0.2,0.6l-1,0.6l-0.2-0.6l-7.2,4.2l0.2,0.6l-1,0.6l-0.2-0.6l-7.2,4.2l0.2,0.6l-1,0.6
								l-0.2-0.6l-7.2,4.2l0.2,0.6l-1,0.6l-0.2-0.6l-7.2,4.2l0.2,0.6l-0.9,0.5l-0.2-0.6l-7.2,4.2l0.2,0.6l-1,0.6l-0.2-0.6l-7.2,4.2
								l0.2,0.6l-0.9,0.5l-0.2-0.6l-5,2.9l-2.1,1.2l0.2,0.6l-1,0.6l-0.2-0.6l-7.2,4.2l0.2,0.6l-1,0.6l-0.2-0.6l-7.2,4.2l0.2,0.6
								l-1,0.6l-0.2-0.6l-7.4,4.3l-2.2-8.3l-0.5,0.3l-0.3-1.2l0.5-0.3l-2-7.7l-0.5,0.3l-0.3-1.2l0.5-0.3l-2-7.7l-0.5,0.3l-0.3-1.2
								l-0.5,0.3l7.2,27.1l0.3,1.2l1-0.6l7.4-4.3l1-0.6l7.2-4.2l1-0.6l7.2-4.2l1-0.6l7.2-4.2l0.9-0.5l7.2-4.2l1-0.6l7.2-4.2l0.9-0.5
								l7.2-4.2l1-0.6l7.2-4.2l1-0.6l7.2-4.2l1-0.6l7.2-4.2l1-0.6l7.2-4.2l0.5-0.3l0.5-0.3l0,0L1057.2,457.8"/>
							<path id="XMLID_583_" fill="#FFFFFF" d="M981,523.8l-1,0.6l2.2,8.3l0.2,0.6l1-0.6l-0.2-0.6L981,523.8 M978.7,514.9l-1,0.6
								l2,7.7l1-0.6L978.7,514.9 M976.3,506.1l-1,0.6l2,7.7l1-0.6L976.3,506.1"/>
							<path id="XMLID_579_" fill="#FFFFFF" d="M989.2,519.1l-1,0.6l2.2,8.3l0.2,0.6l1-0.6l-0.2-0.6L989.2,519.1 M986.8,510.2
								l-1,0.6l2,7.7l1-0.6L986.8,510.2 M984.5,501.4l-1,0.6l2,7.7l1-0.6L984.5,501.4"/>
							<path id="XMLID_575_" fill="#FFFFFF" d="M997.3,514.3l-0.9,0.6l2.2,8.3l0.2,0.6l1-0.6l-0.2-0.6L997.3,514.3 M994.9,505.5
								l-0.9,0.5l2,7.7l0.9-0.6L994.9,505.5 M992.6,496.7l-0.9,0.5l2,7.7l0.9-0.5L992.6,496.7"/>
							<polyline id="XMLID_574_" fill="#FFFFFF" points="1056.7,458 967.2,510 967.5,511.2 968,510.9 975.4,506.7 976.3,506.1 
								983.5,501.9 984.5,501.4 991.6,497.2 992.6,496.7 999.7,492.5 999.6,491.9 1000.5,491.4 1000.7,492 1007.9,487.8 
								1007.7,487.2 1008.6,486.6 1008.8,487.2 1016,483.1 1015.8,482.5 1016.8,481.9 1016.9,482.5 1018.3,481.7 1024.1,478.4 
								1023.9,477.8 1024.9,477.2 1025,477.8 1032.2,473.6 1032,473 1033,472.5 1033.1,473.1 1040.3,468.9 1040.2,468.3 
								1041.1,467.8 1041.3,468.4 1048.4,464.2 1048.3,463.6 1049.2,463.1 1049.4,463.7 1057,459.2 1056.7,458 							"/>
							<path id="XMLID_564_" fill="#FFFFFF" d="M1001.8,500.2l-7.2,4.2l-0.9,0.5l-7.2,4.2l-1,0.6l-7.2,4.2l-1,0.6l-7.4,4.3l-0.5,0.3
								l0.3,1.2l0.5-0.3l7.4-4.3l1-0.6l7.2-4.2l1-0.6l7.2-4.2l0.9-0.5l7.2-4.2L1001.8,500.2 M1009.9,495.4l-7.2,4.2l0.3,1.2l7.2-4.2
								L1009.9,495.4 M1018,490.7l-7.2,4.2l0.3,1.2l7.2-4.2L1018,490.7 M1026.1,486l-7.2,4.2l0.3,1.2l7.2-4.2L1026.1,486
								 M1034.2,481.3l-7.2,4.2l0.3,1.2l7.2-4.2L1034.2,481.3 M1042.3,476.6l-7.2,4.2l0.3,1.2l7.2-4.2L1042.3,476.6 M1050.5,471.9
								l-7.2,4.2l0.3,1.2l7.2-4.2L1050.5,471.9 M1059,466.9l-0.5,0.3l-7.2,4.2l0.3,1.2l7.2-4.2l0.5-0.3L1059,466.9"/>
							<path id="XMLID_555_" fill="#FFFFFF" d="M1004.1,509l-7.2,4.2l-0.9,0.6l-7.2,4.2l-1,0.6l-7.2,4.2l-1,0.6l-7.4,4.3l-0.5,0.3
								l0.3,1.2l0.5-0.3l7.4-4.3l1-0.6l7.2-4.2l1-0.6l7.2-4.2l0.9-0.6l7.2-4.2L1004.1,509 M1012.2,504.3l-7.2,4.2l0.3,1.2l7.2-4.2
								L1012.2,504.3 M1020.4,499.6l-7.2,4.2l0.3,1.2l7.2-4.2L1020.4,499.6 M1028.5,494.8l-7.2,4.2l0.3,1.2l7.2-4.2L1028.5,494.8
								 M1036.6,490.1l-7.2,4.2l0.3,1.2l7.2-4.2L1036.6,490.1 M1044.7,485.4l-7.2,4.2l0.3,1.2l7.2-4.2L1044.7,485.4 M1052.8,480.7
								l-7.2,4.2l0.3,1.2l7.2-4.2L1052.8,480.7 M1061.4,475.7l-0.5,0.3l-7.2,4.2l0.3,1.2l7.2-4.2l0.5-0.3L1061.4,475.7"/>
							<polyline id="XMLID_554_" fill="#FFFFFF" points="1000.5,491.4 999.6,491.9 999.7,492.5 1001.8,500.2 1002.1,501.3 
								1004.1,509 1004.4,510.2 1006.6,518.4 1006.6,518.4 1006.8,519 1007.7,518.5 1007.6,517.9 1007.6,517.9 1005.4,509.6 
								1005.1,508.4 1003,500.8 1002.7,499.6 1000.7,492 1000.5,491.4 							"/>
							<polyline id="XMLID_553_" fill="#FFFFFF" points="1008.6,486.6 1007.7,487.2 1007.9,487.8 1009.9,495.4 1010.2,496.6 
								1012.2,504.3 1012.6,505.5 1014.7,513.7 1014.7,513.7 1014.9,514.3 1015.9,513.8 1015.7,513.2 1015.7,513.2 1013.5,504.9 
								1013.2,503.7 1011.1,496.1 1010.8,494.9 1008.8,487.2 1008.6,486.6 							"/>
							<polyline id="XMLID_552_" fill="#FFFFFF" points="1016.8,481.9 1015.8,482.5 1016,483.1 1018,490.7 1018.3,491.9 
								1020.4,499.6 1020.7,500.7 1022.9,509 1022.9,509 1023,509.6 1024,509.1 1023.8,508.5 1023.8,508.5 1021.6,500.2 1021.3,499 
								1019.3,491.4 1019,490.2 1016.9,482.5 1016.8,481.9 							"/>
							<polyline id="XMLID_551_" fill="#FFFFFF" points="1024.9,477.2 1023.9,477.8 1024.1,478.4 1024.1,478.4 1026.1,486 
								1026.4,487.2 1028.5,494.8 1028.8,496 1031,504.3 1031,504.3 1031.1,504.9 1032.1,504.3 1031.9,503.7 1031.9,503.7 
								1029.7,495.5 1029.4,494.3 1027.4,486.6 1027.1,485.5 1025,477.8 1025,477.8 1024.9,477.2 							"/>
							<polyline id="XMLID_550_" fill="#FFFFFF" points="1033,472.5 1032,473 1032.2,473.6 1032.2,473.6 1034.2,481.3 1034.5,482.5 
								1036.6,490.1 1036.9,491.3 1039.1,499.6 1039.1,499.6 1039.2,500.2 1040.2,499.6 1040,499 1040,499 1037.8,490.8 
								1037.5,489.6 1035.5,481.9 1035.2,480.7 1033.1,473.1 1033.1,473.1 1033,472.5 							"/>
							<polyline id="XMLID_549_" fill="#FFFFFF" points="1041.1,467.8 1040.2,468.3 1040.3,468.9 1040.3,468.9 1042.3,476.6 
								1042.7,477.8 1044.7,485.4 1045,486.6 1047.2,494.9 1047.2,494.9 1047.4,495.5 1048.3,494.9 1048.2,494.3 1048.2,494.3 
								1046,486 1045.6,484.9 1043.6,477.2 1043.3,476 1041.3,468.4 1041.3,468.4 1041.1,467.8 							"/>
							<polyline id="XMLID_548_" fill="#FFFFFF" points="1049.2,463.1 1048.3,463.6 1048.4,464.2 1048.4,464.2 1050.5,471.9 
								1050.8,473 1052.8,480.7 1053.1,481.9 1055.3,490.1 1055.3,490.2 1055.5,490.7 1056.4,490.2 1056.3,489.6 1056.3,489.6 
								1054.1,481.3 1053.8,480.2 1051.7,472.5 1051.4,471.3 1049.4,463.7 1049.4,463.7 1049.2,463.1 							"/>
						</g>
					</g>
				</g>
			</g>
			<g id="XMLID_476_" opacity="0.7">
				<defs>
					<polygon id="XMLID_477_" opacity="0.7" points="1031.4,450.7 1031.7,505.9 1065.1,525.1 1051.3,461.9 					"/>
				</defs>
				<clipPath id="XMLID_12_">
					<use xlink:href="#XMLID_477_"  overflow="visible"/>
				</clipPath>
				<g id="XMLID_478_" clip-path="url(#XMLID_12_)">
					<g id="XMLID_479_" enable-background="new    ">
						<defs>
							<polygon id="XMLID_533_" enable-background="new    " points="1031.7,505.9 1032,403.1 1065.4,422.4 1065.1,525.2 							"/>
						</defs>
						<clipPath id="XMLID_13_">
							<use xlink:href="#XMLID_533_"  overflow="visible"/>
						</clipPath>
						<g id="XMLID_480_" clip-path="url(#XMLID_13_)">
							<path id="XMLID_530_" fill="#FFFFFF" d="M1056.7,418.5l0-0.6l1,0.6l0,0.6l6.8,3.9l0,8.3l0.5,0.3l0,1.2l-0.5-0.3l0,8.1
								l0.5,0.3l0,1.2l-0.5-0.3l0,8.1l0.5,0.3l0,1.2l-0.5-0.3l0,8.1l0.5,0.3l0,1.2l-0.5-0.3l0,8.1l0.5,0.3l0,1.2l-0.5-0.3l0,8.1
								l0.5,0.3l0,1.2l-0.5-0.3l0,8.1l0.5,0.3l0,1.2l-0.5-0.3l0,8.1l0.5,0.3l0,1.2l-0.5-0.3l0,8.1l0.5,0.3l0,1.2l-0.5-0.3l0,8.1
								l0.5,0.3l0,1.2l-0.5-0.3l0,8.1l-6.8-3.9l0,0.6l-1-0.6l0-0.6l-7-4.1l0,0.6l-1-0.6l0-0.6l-7-4.1l0,0.6l-1-0.6l0-0.6l-7.6-4.4
								l0-8.1l-0.5-0.3l0-1.2l0.5,0.3l0-8.1l-0.5-0.3l0-1.2l0.5,0.3l0-8.1l-0.5-0.3l0-1.2l0.5,0.3l0-8.1l-0.5-0.3l0-1.2l0.5,0.3
								l0-8.1l-0.5-0.3l0-1.2l0.5,0.3l0-8.1l-0.5-0.3l0-1.2l0.5,0.3l0-8.1l-0.5-0.3l0-1.2l0.5,0.3l0-8.1l-0.5-0.3l0-1.2l0.5,0.3
								l0-8.1l-0.5-0.3l0-1.2l0.5,0.3l0-8.1l-0.5-0.3l0-1.2l0.5,0.3l0-8.3l7.6,4.4l0-0.6l1,0.6l0,0.6l7,4.1l0-0.6l1,0.6l0,0.6
								L1056.7,418.5 M1065.4,422.4l-33.4-19.3l-0.3,102.8l33.4,19.3L1065.4,422.4"/>
							<path id="XMLID_525_" fill="#FFFFFF" d="M1040.6,417.5l-7.6-4.4l-0.5-0.3l0,1.2l0.5,0.3l7.6,4.4L1040.6,417.5 M1048.6,422.1
								l-7-4.1l0,1.2l7,4.1L1048.6,422.1 M1056.6,426.8l-7-4.1l0,1.2l7,4.1L1056.6,426.8 M1064.9,431.6l-0.5-0.3l-6.8-3.9l0,1.2
								l6.8,3.9l0.5,0.3L1064.9,431.6"/>
							<path id="XMLID_520_" fill="#FFFFFF" d="M1040.6,426.7l-7.6-4.4l-0.5-0.3l0,1.2l0.5,0.3l7.6,4.4L1040.6,426.7 M1048.6,431.4
								l-7-4.1l0,1.2l7,4.1L1048.6,431.4 M1056.6,436l-7-4.1l0,1.2l7,4.1L1056.6,436 M1064.9,440.8l-0.5-0.3l-6.8-3.9l0,1.2l6.8,3.9
								l0.5,0.3L1064.9,440.8"/>
							<path id="XMLID_515_" fill="#FFFFFF" d="M1040.5,436l-7.6-4.4l-0.5-0.3l0,1.2l0.5,0.3l7.6,4.4L1040.5,436 M1048.5,440.6
								l-7-4.1l0,1.2l7,4.1L1048.5,440.6 M1056.6,445.2l-7-4.1l0,1.2l7,4.1L1056.6,445.2 M1064.9,450l-0.5-0.3l-6.8-3.9l0,1.2
								l6.8,3.9l0.5,0.3L1064.9,450"/>
							<path id="XMLID_506_" fill="#FFFFFF" d="M1057.4,511.5l-1-0.6l0,8.1l0,0.6l1,0.6l0-0.6L1057.4,511.5 M1057.4,502.3l-1-0.6
								l0,8.1l1,0.6L1057.4,502.3 M1057.4,493l-1-0.6l0,8.1l1,0.6L1057.4,493 M1057.5,483.8l-1-0.6l0,8.1l1,0.6L1057.5,483.8
								 M1057.5,474.6l-1-0.6l0,8.1l1,0.6L1057.5,474.6 M1057.5,465.4l-1-0.6l0,8.1l1,0.6L1057.5,465.4 M1057.5,456.2l-1-0.6l0,8.1
								l1,0.6L1057.5,456.2 M1057.7,418.5l-1-0.6l0,0.6l0,8.3l0,1.2l0,8.1l0,1.2l0,8.1l0,1.2l0,8.1l1,0.6l0-8.1l0-1.2l0-8.1l0-1.2
								l0-8.1l0-1.2l0-8.3L1057.7,418.5"/>
							<path id="XMLID_497_" fill="#FFFFFF" d="M1049.4,506.8l-1-0.6l0,8.1l0,0.6l1,0.6l0-0.6L1049.4,506.8 M1049.4,497.6l-1-0.6
								l0,8.1l1,0.6L1049.4,497.6 M1049.4,488.4l-1-0.6l0,8.1l1,0.6L1049.4,488.4 M1049.4,479.2l-1-0.6l0,8.1l1,0.6L1049.4,479.2
								 M1049.5,470l-1-0.6l0,8.1l1,0.6L1049.5,470 M1049.5,460.7l-1-0.6l0,8.1l1,0.6L1049.5,460.7 M1049.5,451.5l-1-0.6l0,8.1
								l1,0.6L1049.5,451.5 M1049.6,413.8l-1-0.6l0,0.6l0,8.3l0,1.2l0,8.1l0,1.2l0,8.1l0,1.2l0,8.1l1,0.6l0-8.1l0-1.2l0-8.1l0-1.2
								l0-8.1l0-1.2l0-8.3L1049.6,413.8"/>
							<path id="XMLID_488_" fill="#FFFFFF" d="M1041.3,502.2l-1-0.6l0,8.1l0,0.6l1,0.6l0-0.6L1041.3,502.2 M1041.4,493l-1-0.6
								l0,8.1l1,0.6L1041.4,493 M1041.4,483.8l-1-0.6l0,8.1l1,0.6L1041.4,483.8 M1041.4,474.5l-1-0.6l0,8.1l1,0.6L1041.4,474.5
								 M1041.4,465.3l-1-0.6l0,8.1l1,0.6L1041.4,465.3 M1041.5,456.1l-1-0.6l0,8.1l1,0.6L1041.5,456.1 M1041.5,446.9l-1-0.6l0,8.1
								l1,0.6L1041.5,446.9 M1041.6,409.2l-1-0.6l0,0.6l0,8.3l0,1.2l0,8.1l0,1.2l0,8.1l0,1.2l0,8.1l1,0.6l0-8.1l0-1.2l0-8.1l0-1.2
								l0-8.1l0-1.2l0-8.3L1041.6,409.2"/>
							<polyline id="XMLID_487_" fill="#FFFFFF" points="1064.8,459.2 1064.3,458.9 1057.6,455 1056.6,454.4 1049.5,450.4 
								1048.5,449.8 1041.5,445.7 1040.5,445.2 1032.9,440.8 1032.4,440.5 1032.4,441.7 1032.9,441.9 1040.5,446.3 1041.5,446.9 
								1048.5,450.9 1049.5,451.5 1056.5,455.6 1057.5,456.2 1064.3,460.1 1064.8,460.4 1064.8,459.2 							"/>
							<polyline id="XMLID_486_" fill="#FFFFFF" points="1064.8,468.4 1064.3,468.1 1057.5,464.2 1056.5,463.7 1049.5,459.6 
								1048.5,459 1041.5,455 1040.5,454.4 1032.9,450 1032.4,449.7 1032.4,450.9 1032.9,451.2 1040.5,455.5 1041.5,456.1 
								1048.5,460.2 1049.5,460.7 1056.5,464.8 1057.5,465.4 1064.3,469.3 1064.8,469.6 1064.8,468.4 							"/>
							<polyline id="XMLID_485_" fill="#FFFFFF" points="1064.8,477.7 1064.3,477.4 1057.5,473.4 1056.5,472.9 1049.5,468.8 
								1048.5,468.2 1041.5,464.2 1040.5,463.6 1032.9,459.2 1032.4,458.9 1032.4,460.1 1032.9,460.4 1040.4,464.8 1041.4,465.3 
								1048.5,469.4 1049.5,470 1056.5,474 1057.5,474.6 1064.3,478.5 1064.8,478.8 1064.8,477.7 							"/>
							<polyline id="XMLID_484_" fill="#FFFFFF" points="1064.8,486.9 1064.2,486.6 1057.5,482.7 1056.5,482.1 1049.4,478 
								1048.4,477.4 1041.4,473.4 1040.4,472.8 1032.8,468.4 1032.4,468.2 1032.3,469.3 1032.8,469.6 1040.4,474 1041.4,474.5 
								1048.4,478.6 1049.4,479.2 1056.5,483.2 1057.5,483.8 1064.2,487.7 1064.8,488 1064.8,486.9 							"/>
							<polyline id="XMLID_483_" fill="#FFFFFF" points="1064.7,496.1 1064.2,495.8 1057.4,491.9 1056.4,491.3 1049.4,487.3 
								1048.4,486.7 1041.4,482.6 1040.4,482 1032.8,477.7 1032.3,477.4 1032.3,478.5 1032.8,478.8 1040.4,483.2 1041.4,483.8 
								1048.4,487.8 1049.4,488.4 1056.4,492.5 1057.4,493 1064.2,496.9 1064.7,497.2 1064.7,496.1 							"/>
							<polyline id="XMLID_482_" fill="#FFFFFF" points="1064.7,505.3 1064.2,505 1057.4,501.1 1056.4,500.5 1049.4,496.5 
								1048.4,495.9 1041.4,491.8 1040.4,491.3 1032.8,486.9 1032.3,486.6 1032.3,487.7 1032.8,488 1040.4,492.4 1041.4,493 
								1048.4,497 1049.4,497.6 1056.4,501.7 1057.4,502.3 1064.2,506.2 1064.7,506.5 1064.7,505.3 							"/>
							<polyline id="XMLID_481_" fill="#FFFFFF" points="1064.7,514.5 1064.2,514.2 1057.4,510.3 1056.4,509.7 1049.4,505.7 
								1048.4,505.1 1041.3,501.1 1040.3,500.5 1032.8,496.1 1032.3,495.8 1032.3,497 1032.8,497.3 1040.3,501.6 1041.3,502.2 
								1048.4,506.3 1049.4,506.8 1056.4,510.9 1057.4,511.5 1064.2,515.4 1064.7,515.7 1064.7,514.5 							"/>
						</g>
					</g>
				</g>
			</g>
			<g id="XMLID_31_" opacity="0.7">
				<defs>
					<polygon id="XMLID_32_" opacity="0.7" points="941.3,501.6 941.8,558.2 975.5,578.1 961.2,512.8 					"/>
				</defs>
				<clipPath id="XMLID_14_">
					<use xlink:href="#XMLID_32_"  overflow="visible"/>
				</clipPath>
				<g id="XMLID_33_" clip-path="url(#XMLID_14_)">
					<g id="XMLID_36_" enable-background="new    ">
						<defs>
							<polygon id="XMLID_253_" enable-background="new    " points="941.8,558.2 942.1,455.4 975.5,474.6 975.2,577.4 							"/>
						</defs>
						<clipPath id="XMLID_15_">
							<use xlink:href="#XMLID_253_"  overflow="visible"/>
						</clipPath>
						<g id="XMLID_40_" clip-path="url(#XMLID_15_)">
							<path id="XMLID_250_" fill="#FFFFFF" d="M966.7,470.7l0-0.6l1,0.6l0,0.6l6.8,3.9l0,8.3l0.5,0.3l0,1.2l-0.5-0.3l0,8.1l0.5,0.3
								l0,1.2l-0.5-0.3l0,8.1l0.5,0.3l0,1.2l-0.5-0.3l0,8.1l0.5,0.3l0,1.2l-0.5-0.3l0,8.1l0.5,0.3l0,1.2l-0.5-0.3l0,8.1l0.5,0.3
								l0,1.2l-0.5-0.3l0,8.1l0.5,0.3l0,1.2l-0.5-0.3l0,8.1l0.5,0.3l0,1.2l-0.5-0.3l0,8.1l0.5,0.3l0,1.2l-0.5-0.3l0,8.1l0.5,0.3
								l0,1.2l-0.5-0.3l0,8.1l-6.8-3.9l0,0.6l-1-0.6l0-0.6l-7-4.1l0,0.6l-1-0.6l0-0.6l-7-4.1l0,0.6l-1-0.6l0-0.6l-7.6-4.4l0-8.1
								l-0.5-0.3l0-1.2l0.5,0.3l0-8.1l-0.5-0.3l0-1.2l0.5,0.3l0-8.1l-0.5-0.3l0-1.2l0.5,0.3l0-8.1l-0.5-0.3l0-1.2l0.5,0.3l0-8.1
								l-0.5-0.3l0-1.2l0.5,0.3l0-8.1l-0.5-0.3l0-1.2l0.5,0.3l0-8.1l-0.5-0.3l0-1.2l0.5,0.3l0-8.1l-0.5-0.3l0-1.2l0.5,0.3l0-8.1
								l-0.5-0.3l0-1.2l0.5,0.3l0-8.1l-0.5-0.3l0-1.2l0.5,0.3l0-8.3l7.6,4.4l0-0.6l1,0.6l0,0.6l7,4.1l0-0.6l1,0.6l0,0.6L966.7,470.7
								 M975.5,474.6l-33.4-19.3l-0.3,102.8l33.4,19.3L975.5,474.6"/>
							<path id="XMLID_233_" fill="#FFFFFF" d="M950.6,469.8l-7.6-4.4l-0.5-0.3l0,1.2l0.5,0.3l7.6,4.4L950.6,469.8 M958.6,474.4
								l-7-4.1l0,1.2l7,4.1L958.6,474.4 M966.7,479l-7-4.1l0,1.2l7,4.1L966.7,479 M974.9,483.8l-0.5-0.3l-6.8-3.9l0,1.2l6.8,3.9
								l0.5,0.3L974.9,483.8"/>
							<path id="XMLID_228_" fill="#FFFFFF" d="M950.6,479l-7.6-4.4l-0.5-0.3l0,1.2l0.5,0.3l7.6,4.4L950.6,479 M958.6,483.6l-7-4.1
								l0,1.2l7,4.1L958.6,483.6 M966.6,488.2l-7-4.1l0,1.2l7,4.1L966.6,488.2 M974.9,493l-0.5-0.3l-6.8-3.9l0,1.2l6.8,3.9l0.5,0.3
								L974.9,493"/>
							<path id="XMLID_223_" fill="#FFFFFF" d="M950.6,488.2l-7.6-4.4l-0.5-0.3l0,1.2l0.5,0.3l7.6,4.4L950.6,488.2 M958.6,492.8
								l-7-4.1l0,1.2l7,4.1L958.6,492.8 M966.6,497.5l-7-4.1l0,1.2l7,4.1L966.6,497.5 M974.9,502.3l-0.5-0.3l-6.8-3.9l0,1.2l6.8,3.9
								l0.5,0.3L974.9,502.3"/>
							<path id="XMLID_214_" fill="#FFFFFF" d="M967.4,563.7l-1-0.6l0,8.1l0,0.6l1,0.6l0-0.6L967.4,563.7 M967.5,554.5l-1-0.6l0,8.1
								l1,0.6L967.5,554.5 M967.5,545.3l-1-0.6l0,8.1l1,0.6L967.5,545.3 M967.5,536.1l-1-0.6l0,8.1l1,0.6L967.5,536.1 M967.5,526.9
								l-1-0.6l0,8.1l1,0.6L967.5,526.9 M967.6,517.6l-1-0.6l0,8.1l1,0.6L967.6,517.6 M967.6,508.4l-1-0.6l0,8.1l1,0.6L967.6,508.4
								 M967.7,470.7l-1-0.6l0,0.6l0,8.3l0,1.2l0,8.1l0,1.2l0,8.1l0,1.2l0,8.1l1,0.6l0-8.1l0-1.2l0-8.1l0-1.2l0-8.1l0-1.2l0-8.3
								L967.7,470.7"/>
							<path id="XMLID_205_" fill="#FFFFFF" d="M959.4,559.1l-1-0.6l0,8.1l0,0.6l1,0.6l0-0.6L959.4,559.1 M959.4,549.9l-1-0.6l0,8.1
								l1,0.6L959.4,549.9 M959.5,540.7l-1-0.6l0,8.1l1,0.6L959.5,540.7 M959.5,531.4l-1-0.6l0,8.1l1,0.6L959.5,531.4 M959.5,522.2
								l-1-0.6l0,8.1l1,0.6L959.5,522.2 M959.5,513l-1-0.6l0,8.1l1,0.6L959.5,513 M959.6,503.8l-1-0.6l0,8.1l1,0.6L959.6,503.8
								 M959.7,466.1l-1-0.6l0,0.6l0,8.3l0,1.2l0,8.1l0,1.2l0,8.1l0,1.2l0,8.1l1,0.6l0-8.1l0-1.2l0-8.1l0-1.2l0-8.1l0-1.2l0-8.3
								L959.7,466.1"/>
							<path id="XMLID_60_" fill="#FFFFFF" d="M951.4,554.5l-1-0.6l0,8.1l0,0.6l1,0.6l0-0.6L951.4,554.5 M951.4,545.2l-1-0.6l0,8.1
								l1,0.6L951.4,545.2 M951.4,536l-1-0.6l0,8.1l1,0.6L951.4,536 M951.5,526.8l-1-0.6l0,8.1l1,0.6L951.5,526.8 M951.5,517.6
								l-1-0.6l0,8.1l1,0.6L951.5,517.6 M951.5,508.4l-1-0.6l0,8.1l1,0.6L951.5,508.4 M951.5,499.2l-1-0.6l0,8.1l1,0.6L951.5,499.2
								 M951.6,461.5l-1-0.6l0,0.6l0,8.3l0,1.2l0,8.1l0,1.2l0,8.1l0,1.2l0,8.1l1,0.6l0-8.1l0-1.2l0-8.1l0-1.2l0-8.1l0-1.2l0-8.3
								L951.6,461.5"/>
							<polyline id="XMLID_58_" fill="#FFFFFF" points="974.9,511.5 974.4,511.2 967.6,507.3 966.6,506.7 959.6,502.6 958.6,502.1 
								951.5,498 950.5,497.4 943,493 942.5,492.8 942.5,493.9 943,494.2 950.5,498.6 951.5,499.2 958.6,503.2 959.6,503.8 
								966.6,507.8 967.6,508.4 974.4,512.3 974.9,512.6 974.9,511.5 							"/>
							<polyline id="XMLID_57_" fill="#FFFFFF" points="974.8,520.7 974.3,520.4 967.6,516.5 966.6,515.9 959.5,511.9 958.5,511.3 
								951.5,507.2 950.5,506.6 942.9,502.3 942.4,502 942.4,503.1 942.9,503.4 950.5,507.8 951.5,508.4 958.5,512.4 959.5,513 
								966.6,517.1 967.6,517.6 974.3,521.6 974.8,521.8 974.8,520.7 							"/>
							<polyline id="XMLID_56_" fill="#FFFFFF" points="974.8,529.9 974.3,529.6 967.5,525.7 966.5,525.1 959.5,521.1 958.5,520.5 
								951.5,516.4 950.5,515.9 942.9,511.5 942.4,511.2 942.4,512.3 942.9,512.6 950.5,517 951.5,517.6 958.5,521.6 959.5,522.2 
								966.5,526.3 967.5,526.9 974.3,530.8 974.8,531.1 974.8,529.9 							"/>
							<polyline id="XMLID_50_" fill="#FFFFFF" points="974.8,539.1 974.3,538.8 967.5,534.9 966.5,534.3 959.5,530.3 958.5,529.7 
								951.5,525.7 950.5,525.1 942.9,520.7 942.4,520.4 942.4,521.6 942.9,521.9 950.5,526.2 951.5,526.8 958.5,530.9 959.5,531.4 
								966.5,535.5 967.5,536.1 974.3,540 974.8,540.3 974.8,539.1 							"/>
							<polyline id="XMLID_48_" fill="#FFFFFF" points="974.8,548.3 974.3,548.1 967.5,544.1 966.5,543.6 959.5,539.5 958.5,538.9 
								951.4,534.9 950.4,534.3 942.9,529.9 942.4,529.6 942.4,530.8 942.9,531.1 950.4,535.5 951.4,536 958.4,540.1 959.5,540.7 
								966.5,544.7 967.5,545.3 974.3,549.2 974.8,549.5 974.8,548.3 							"/>
							<polyline id="XMLID_45_" fill="#FFFFFF" points="974.7,557.6 974.2,557.3 967.5,553.4 966.5,552.8 959.4,548.7 958.4,548.1 
								951.4,544.1 950.4,543.5 942.8,539.1 942.3,538.9 942.3,540 942.8,540.3 950.4,544.7 951.4,545.2 958.4,549.3 959.4,549.9 
								966.5,553.9 967.5,554.5 974.2,558.4 974.7,558.7 974.7,557.6 							"/>
							<polyline id="XMLID_43_" fill="#FFFFFF" points="974.7,566.8 974.2,566.5 967.4,562.6 966.4,562 959.4,557.9 958.4,557.4 
								951.4,553.3 950.4,552.7 942.8,548.4 942.3,548.1 942.3,549.2 942.8,549.5 950.4,553.9 951.4,554.5 958.4,558.5 959.4,559.1 
								966.4,563.2 967.4,563.7 974.2,567.6 974.7,567.9 974.7,566.8 							"/>
						</g>
					</g>
				</g>
			</g>
			<g id="XMLID_254_">
				<g id="XMLID_410_" enable-background="new    ">
					<g id="XMLID_415_">
						<polygon id="XMLID_534_" fill="#898989" points="1055.3,459.1 1069.7,529.6 1065.6,527.2 1051.3,461.9 1031.4,450.7 
							1031.2,445.2 						"/>
					</g>
					<g id="XMLID_413_">
						<polygon id="XMLID_414_" fill="#E1E1E1" points="1055.3,459.1 1060.5,456.1 1074.9,526.6 1069.7,529.6 						"/>
					</g>
					<g id="XMLID_411_">
						<polygon id="XMLID_412_" fill="#DCDCDC" points="1030.2,444.6 1035.4,441.6 1060.5,456.1 1055.3,459.1 						"/>
					</g>
				</g>
			</g>
			<g id="XMLID_426_" opacity="0.8">
				<g id="XMLID_427_" enable-background="new    ">
					<defs>
						<polygon id="XMLID_475_" enable-background="new    " points="945.4,493.6 1030.5,444.7 1055.2,459 970.6,508.2 						"/>
					</defs>
					<clipPath id="XMLID_18_">
						<use xlink:href="#XMLID_475_"  overflow="visible"/>
					</clipPath>
					<g id="XMLID_428_" clip-path="url(#XMLID_18_)">
						<path id="XMLID_429_" fill="#FFFFFF" d="M947.9,493.9l6.8-4l3.3,1.9l-6.8,4L947.9,493.9 M952.1,496.4l6.8-4l6.7,3.9l-6.8,4
							L952.1,496.4 M959.7,500.8l6.8-4l6.7,3.9l-6.8,4L959.7,500.8 M967.4,505.2l6.8-4l3.2,1.9l-6.8,4L967.4,505.2 M955.6,489.4
							l6.6-3.9l3.3,1.9l-6.6,3.9L955.6,489.4 M959.9,491.9l6.6-3.9l6.7,3.9l-6.6,3.9L959.9,491.9 M967.5,496.3l6.6-3.9l6.7,3.9
							l-6.6,3.9L967.5,496.3 M975.2,500.7l6.6-3.9l3.2,1.9l-6.6,3.9L975.2,500.7 M963.2,485l6.6-3.9l3.3,1.9l-6.6,3.9L963.2,485
							 M967.5,487.5l6.6-3.9l6.7,3.9l-6.6,3.9L967.5,487.5 M975.1,491.9l6.6-3.9l6.7,3.9l-6.6,3.9L975.1,491.9 M982.7,496.3l6.6-3.9
							l3.2,1.9l-6.6,3.9L982.7,496.3 M970.8,480.6l6.6-3.9l3.3,1.9l-6.6,3.9L970.8,480.6 M975.1,483.1l6.6-3.9l6.7,3.9l-6.6,3.9
							L975.1,483.1 M982.7,487.5l6.6-3.9l6.7,3.9l-6.6,3.9L982.7,487.5 M990.3,491.9l6.6-3.9l3.2,1.9l-6.6,3.9L990.3,491.9
							 M978.4,476.2l6.6-3.9l3.3,1.9l-6.6,3.9L978.4,476.2 M982.6,478.6l6.6-3.9l6.7,3.9l-6.6,3.9L982.6,478.6 M990.3,483l6.6-3.9
							l6.7,3.9l-6.6,3.9L990.3,483 M997.9,487.5l6.6-3.9l3.2,1.9l-6.6,3.9L997.9,487.5 M986,471.8l6.6-3.9l3.3,1.9l-6.6,3.9
							L986,471.8 M990.2,474.2l6.6-3.9l6.7,3.9l-6.6,3.9L990.2,474.2 M997.9,478.6l6.6-3.9l6.7,3.9l-6.6,3.9L997.9,478.6
							 M1005.5,483.1l6.6-3.9l3.2,1.9l-6.6,3.9L1005.5,483.1 M993.6,467.4l6.6-3.9l3.3,1.9l-6.6,3.9L993.6,467.4 M997.8,469.8
							l6.6-3.9l6.7,3.9l-6.6,3.9L997.8,469.8 M1005.4,474.2l6.6-3.9l6.7,3.9l-6.6,3.9L1005.4,474.2 M1013.1,478.6l6.6-3.9l3.2,1.9
							l-6.6,3.9L1013.1,478.6 M1001.1,463l6.6-3.9l3.3,1.9l-6.6,3.9L1001.1,463 M1005.4,465.4l6.6-3.9l6.7,3.9l-6.6,3.9
							L1005.4,465.4 M1013,469.8l6.6-3.9l6.7,3.9l-6.6,3.9L1013,469.8 M1020.7,474.2l6.6-3.9l3.2,1.9l-6.6,3.9L1020.7,474.2
							 M1008.7,458.6l6.6-3.9l3.3,1.9l-6.6,3.9L1008.7,458.6 M1013,461l6.6-3.9l6.7,3.9l-6.6,3.9L1013,461 M1020.6,465.4l6.6-3.9
							l6.7,3.9l-6.6,3.9L1020.6,465.4 M1028.3,469.8l6.6-3.9l3.2,1.9l-6.6,3.9L1028.3,469.8 M1016.3,454.2l6.6-3.9l3.3,1.9l-6.6,3.9
							L1016.3,454.2 M1020.6,456.6l6.6-3.9l6.7,3.9l-6.6,3.9L1020.6,456.6 M1028.2,461l6.6-3.9l6.7,3.9l-6.6,3.9L1028.2,461
							 M1035.8,465.4l6.6-3.9l3.2,1.9l-6.6,3.9L1035.8,465.4 M1023.9,449.7l6.6-3.9l3.3,1.9l-6.6,3.9L1023.9,449.7 M1028.1,452.2
							l6.6-3.9l6.7,3.9l-6.6,3.9L1028.1,452.2 M1035.8,456.6l6.6-3.9l6.7,3.9l-6.6,3.9L1035.8,456.6 M1043.4,461l6.6-3.9l3.2,1.9
							l-6.6,3.9L1043.4,461 M1055.2,459l-24.7-14.3l-85.1,48.9l25.2,14.6L1055.2,459"/>
					</g>
				</g>
			</g>
			<g id="XMLID_408_">
				<g id="XMLID_537_" enable-background="new    ">
					<g id="XMLID_542_">
						<polygon id="XMLID_543_" fill="#898989" points="965.3,510 979.7,580.5 975.5,578.1 961.2,512.8 941.3,501.6 941.2,496.1 
													"/>
					</g>
					<g id="XMLID_540_">
						<polygon id="XMLID_541_" fill="#E1E1E1" points="965.3,510 970.4,507 984.8,577.5 979.7,580.5 						"/>
					</g>
					<g id="XMLID_538_">
						<polygon id="XMLID_539_" fill="#DCDCDC" points="940.1,495.5 945.3,492.5 970.4,507 965.3,510 						"/>
					</g>
				</g>
			</g>
		</g>
		<g id="XMLID_68_">
			<ellipse id="XMLID_359_" opacity="0.33" fill="#363B37" cx="695.1" cy="365.1" rx="34.3" ry="16.4"/>
			<g id="XMLID_69_">
				<g id="XMLID_547_">
					<path id="XMLID_22_" fill="#939596" d="M739.2,339.6c0,6.6-1.9,12.7-5.2,17.9c-6,9.5-16.5,15.8-28.5,15.8
						c-18.6,0-33.7-15.1-33.7-33.7c0-10.7,5-20.2,12.8-26.4c5.8-4.6,13-7.3,21-7.3C724.2,306,739.2,321,739.2,339.6z"/>
				</g>
				<g id="XMLID_376_">
					<path id="XMLID_23_" fill="#BCBEC0" d="M739.2,339.6c0,6.6-1.9,12.7-5.2,17.9c-5.8,4.6-13,7.3-21,7.3
						c-18.6,0-33.7-15.1-33.7-33.7c0-6.6,1.9-12.8,5.2-18c5.8-4.6,13-7.3,21-7.3C724.2,306,739.2,321,739.2,339.6z"/>
				</g>
				<path id="XMLID_355_" fill="none" stroke="#A7A9AC" stroke-width="0.2915" d="M695.1,324.2c0,0,6.2-7,10.8-8.3"/>
				<path id="XMLID_354_" fill="none" stroke="#A7A9AC" stroke-width="0.2915" d="M719.5,320.3c0,0,3.4,6.9,3.7,12.8"/>
				<path id="XMLID_353_" fill="none" stroke="#A7A9AC" stroke-width="0.2915" d="M725.8,315.8c0,0,2.8,0,4.5,0.9"/>
				<path id="XMLID_352_" fill="none" stroke="#A7A9AC" stroke-width="0.2915" d="M703.8,308.1c0,0-7.5-0.2-14.7,3.4"/>
				<path id="XMLID_351_" fill="none" stroke="#A7A9AC" stroke-width="0.2915" d="M681.9,319.8c0,0-0.7,3.2,1.1,5.9"/>
				<path id="XMLID_126_" fill="none" stroke="#A7A9AC" stroke-width="0.2915" d="M679,339.7c0,0-2.7,1-4.3,4.3"/>
				<path id="XMLID_120_" fill="none" stroke="#A7A9AC" stroke-width="0.2915" d="M699.1,337.6c0,0,10.1,2.2,13.6,5.1"/>
				<path id="XMLID_119_" fill="none" stroke="#A7A9AC" stroke-width="0.2915" d="M687.1,347.4c0,0,1,7,4.8,12.9"/>
				<path id="XMLID_118_" fill="none" stroke="#A7A9AC" stroke-width="0.2915" d="M679,360.5c0,0,5.2,3.7,7.9,4.4"/>
				<path id="XMLID_117_" fill="none" stroke="#A7A9AC" stroke-width="0.2915" d="M705.5,365.1c0,0,6.6-2.2,9.8-8.6"/>
				<path id="XMLID_116_" fill="none" stroke="#A7A9AC" stroke-width="0.2915" d="M728.5,355c0,0,1.3,3.6,0.8,7"/>
				<path id="XMLID_114_" fill="none" stroke="#A7A9AC" stroke-width="0.2915" d="M732.9,340.9c0,0,2.9-1.2,4.5-3.5"/>
				<path id="XMLID_113_" fill="none" stroke="#A7A9AC" stroke-width="0.2915" d="M708.2,371.2c0,0,2,1.1,4.9,1.3"/>
				<path id="XMLID_112_" stroke="#6D6E71" stroke-width="0.2915" d="M687.1,347.4c0,0-5.3-3.3-8.1-7.7c0,0-0.4-9.1,4-13.9
					c0,0,4.2-2.2,12-1.6c0,0,1,7.5,4.1,13.4C699.1,337.6,689.2,345.4,687.1,347.4z"/>
				<path id="XMLID_111_" stroke="#6D6E71" stroke-width="0.2915" d="M705.5,315.8c0,0,9.7,1.6,13.9,4.5c0,0,4.6-2.7,6.3-4.5
					c0,0-6.6-10.8-22-7.7L705.5,315.8z"/>
				<path id="XMLID_109_" stroke="#6D6E71" stroke-width="0.2915" d="M712.7,342.6c0,0,4.8-3.3,10.4-9.5c0,0,6.9,3.7,9.7,7.8
					c0,0,0.2,7.8-4.4,14.1c0,0-3.3,2-13.1,1.5L712.7,342.6z"/>
				<path id="XMLID_108_" stroke="#6D6E71" stroke-width="0.2915" d="M691.9,360.3c0,0,3.6,2.7,13.7,4.8c0,0,0.8,3.9,2.6,6.1
					c0,0-4.2,1.7-10.5,1.2l-6.2-2.2c0,0-2.6-0.9-4.5-5.4C686.9,364.9,690.6,362.9,691.9,360.3z"/>
				<g id="XMLID_75_">
					<radialGradient id="XMLID_19_" cx="724.5885" cy="366.4001" r="5.3889" gradientUnits="userSpaceOnUse">
						<stop  offset="0" style="stop-color:#58595B"/>
						<stop  offset="1" style="stop-color:#000000"/>
					</radialGradient>
					<path id="XMLID_80_" fill="url(#XMLID_19_)" stroke="#6D6E71" stroke-width="0.2915" d="M729.3,362l-10.9,8.8
						c0.4-0.2,0.8-0.3,1.2-0.5l8.3-5.4c1-0.9,2-1.9,3-2.9H729.3z"/>
					<radialGradient id="XMLID_20_" cx="738.0706" cy="333.4328" r="4.4598" gradientUnits="userSpaceOnUse">
						<stop  offset="0" style="stop-color:#58595B"/>
						<stop  offset="1" style="stop-color:#000000"/>
					</radialGradient>
					<path id="XMLID_78_" fill="url(#XMLID_20_)" stroke="#6D6E71" stroke-width="0.2915" d="M736.9,327.2l0.4,10.2l1.9,2.2
						C739.2,335.3,738.4,331.1,736.9,327.2z"/>
					<path id="XMLID_77_" stroke="#6D6E71" stroke-width="0.2915" d="M679.6,318.2l2.4,1.6l7.1-8.3l-0.3-1.2
						C685.3,312.4,682.2,315,679.6,318.2z"/>
					<path id="XMLID_76_" stroke="#6D6E71" stroke-width="0.2915" d="M672.4,345.7c0.5,2.7,1.3,5.3,2.4,7.7c0-0.1-0.9-6.4,0-9.5
						C674.8,343.9,673.2,344.5,672.4,345.7z"/>
				</g>
				
					<ellipse id="XMLID_70_" transform="matrix(0.6385 -0.7697 0.7697 0.6385 5.0681 669.1562)" opacity="0.34" fill="#FFFFFF" cx="714.8" cy="329.2" rx="17.2" ry="22.1"/>
			</g>
		</g>
	</g>
</g>
</svg>
