<svg xmlns="http://www.w3.org/2000/svg" xmlns:xlink="http://www.w3.org/1999/xlink" width="2300" zoomAndPan="magnify" viewBox="0 0 1724.88 352.49999" height="470" preserveAspectRatio="xMidYMid meet" version="1.0"><defs><g/><clipPath id="id1"><path d="M 59 112.273438 L 191 112.273438 L 191 253 L 59 253 Z M 59 112.273438 " clip-rule="nonzero"/></clipPath><clipPath id="id2"><path d="M 177 112.273438 L 209.839844 112.273438 L 209.839844 144.476562 L 177 144.476562 Z M 177 112.273438 " clip-rule="nonzero"/></clipPath></defs><g clip-path="url(#id1)"><path fill="#000000" d="M 101.359375 180.738281 C 96.835938 179.726562 91.902344 179.949219 87.433594 178.042969 C 81.136719 175.351562 74.941406 171.390625 68.820312 169.398438 C 66.1875 168.542969 62.039062 171.691406 60.230469 169.359375 C 58.949219 167.710938 59.085938 164.949219 60.867188 162.789062 C 63.761719 159.289062 62.453125 153.796875 64.371094 149.988281 C 65.300781 148.140625 67.179688 146.027344 69.191406 145.550781 C 72.035156 144.882812 70.929688 149.113281 71.445312 150.984375 C 71.980469 154.75 71.09375 158.84375 73.363281 162.195312 C 74.746094 164.238281 77.535156 164.417969 79.625 165.429688 C 84.757812 167.90625 91.566406 167.726562 96.023438 169.730469 C 100.480469 171.730469 103.765625 168.894531 107.417969 171.0625 C 111.484375 173.472656 115.199219 176.484375 119.863281 177.835938 C 122.421875 178.578125 124.445312 181.371094 126.960938 181.628906 C 129.578125 181.898438 131.59375 180.003906 133.308594 178.101562 C 137.746094 173.1875 141.773438 167.863281 145.753906 162.558594 C 144.710938 158.363281 142.90625 154.375 143.796875 149.863281 C 145.105469 143.25 145.507812 136.160156 144.53125 129.601562 C 143.941406 125.660156 141.183594 121.5625 141.546875 117.921875 C 141.773438 115.628906 145.371094 114.699219 147.691406 115.183594 C 149.984375 115.660156 151.730469 115.460938 154.0625 114.46875 C 156.640625 113.371094 159.476562 112.28125 162.398438 113.382812 C 164.664062 114.234375 169.179688 116.386719 167.144531 117.320312 C 163.671875 118.914062 156.308594 120.648438 153.363281 127.363281 C 151.738281 131.066406 151.9375 135.183594 152.410156 138.984375 C 152.882812 142.796875 154.539062 146.441406 153.992188 150.375 C 153.378906 154.769531 156.632812 158.769531 157.492188 162.789062 C 158.15625 165.890625 156.203125 169.132812 154.691406 172.136719 C 153.078125 175.34375 153.558594 179.453125 151.089844 182.363281 C 149.375 184.664062 148.628906 186.523438 152.160156 184.984375 C 156.46875 184.195312 160.839844 183.664062 164.742188 181.53125 C 167.378906 181.183594 169.242188 178.242188 169.585938 175.929688 C 171.390625 172.945312 166.574219 172.78125 172.539062 170.453125 C 174.597656 168.546875 176.019531 166.414062 178.976562 165.785156 C 182.296875 165.078125 186.257812 165.8125 188.121094 168.183594 C 193 174.382812 190.929688 181.195312 184.28125 186.171875 C 182.132812 187.78125 180.898438 187.609375 179.082031 188.492188 C 176.808594 189.597656 178.917969 193.214844 178.71875 195.851562 C 178.417969 199.855469 175.996094 203.363281 175.171875 207.261719 C 173.355469 215.820312 172.5625 225.042969 170.429688 233.757812 C 169.566406 236.953125 168.328125 240.121094 167.296875 243.1875 C 167.582031 246.476562 168.894531 250.230469 171.769531 251.949219 C 172.25 252.238281 171.210938 252.789062 170.648438 252.714844 C 170.195312 252.660156 169.683594 252.332031 169.339844 252.464844 C 168.898438 252.632812 168.425781 253.078125 168.007812 252.988281 C 167.503906 252.882812 167.460938 251.519531 166.808594 251.398438 C 166.203125 251.285156 165.953125 252.671875 165.246094 252.378906 C 164.535156 252.082031 164.671875 251.234375 164.316406 251.078125 C 163.992188 250.9375 163.492188 251.617188 163.277344 251.59375 C 161.089844 251.371094 162.933594 247.367188 160.164062 247.265625 C 159.121094 250.511719 153.339844 246.679688 157.339844 246.269531 C 158.957031 245.804688 160.230469 243.421875 161.910156 242.253906 C 163.320312 239.34375 163.789062 235.890625 164.515625 232.707031 C 165.355469 227.441406 165.847656 222.148438 165.714844 216.832031 C 165.644531 214.027344 163.558594 213.324219 161.789062 211.972656 C 160.109375 210.566406 157.507812 212.050781 155.441406 212.101562 C 152.191406 212.183594 148.730469 214.078125 145.671875 213.234375 C 142.003906 212.222656 138.449219 210.78125 134.601562 210.835938 C 131.6875 210.878906 129.167969 209.871094 126.734375 208.378906 C 124.558594 207.039062 122.195312 206.203125 120.960938 203.648438 C 118.9375 199.464844 114.226562 197.066406 110.855469 193.886719 C 107.664062 190.878906 106.097656 186.347656 103.683594 182.722656 C 103.125 181.882812 102.328125 180.957031 101.359375 180.738281 Z M 101.359375 180.738281 " fill-opacity="1" fill-rule="nonzero"/></g><g clip-path="url(#id2)"><path fill="#000000" d="M 191.933594 144.242188 C 185.226562 143.785156 179.335938 138.550781 177.675781 132.214844 C 176.140625 125.644531 179.1875 118.246094 185.128906 114.816406 C 188.949219 112.554688 193.746094 112.273438 197.976562 113.449219 C 203.203125 115.039062 207.179688 119.640625 208.574219 124.777344 C 209.828125 129.507812 208.925781 134.882812 205.589844 138.609375 C 202.570312 142.332031 197.746094 144.476562 192.917969 144.285156 C 192.589844 144.28125 192.261719 144.265625 191.933594 144.242188 Z M 195.929688 143.496094 C 197.132812 143.394531 196.921875 143.027344 195.828125 142.933594 C 193.871094 142.5625 191.761719 142.550781 189.871094 143.207031 C 191.535156 144 193.742188 143.792969 195.601562 143.558594 Z M 190.003906 142.449219 C 190.863281 141.582031 189.96875 139.507812 189.21875 138.6875 C 187.539062 137.839844 186.238281 136.457031 184.703125 135.410156 C 183.546875 134.996094 182.421875 135.785156 181.304688 136.054688 C 181.300781 137.148438 181.226562 138.382812 182.199219 139.140625 C 183.796875 140.703125 185.726562 142.074219 187.90625 142.695312 C 188.605469 142.726562 189.339844 142.6875 190.003906 142.449219 Z M 199.203125 142.492188 C 201.984375 141.304688 204.59375 139.398438 206.164062 136.800781 C 206.730469 136.054688 207.144531 134.746094 205.667969 135.179688 C 203.816406 136.332031 202.140625 137.761719 200.242188 138.851562 C 199.089844 139.753906 198.257812 140.996094 197.441406 142.179688 C 197.726562 142.839844 198.652344 142.683594 199.203125 142.492188 Z M 201.089844 137.722656 C 202.488281 136.585938 204.511719 135.855469 205.246094 134.132812 C 205.578125 132.777344 205.605469 131.375 205.742188 129.992188 C 204.347656 128.769531 202.636719 127.941406 200.960938 127.15625 C 199.308594 127.285156 197.96875 128.738281 196.664062 129.679688 C 195.964844 130.0625 196.144531 130.917969 195.953125 131.574219 C 195.703125 133.109375 195.40625 134.636719 195.238281 136.183594 C 196.539062 137.136719 197.992188 138.011719 199.578125 138.378906 C 200.148438 138.386719 200.625 138 201.089844 137.722656 Z M 191.109375 137.960938 C 192.375 137.484375 194.050781 137.121094 194.648438 135.792969 C 195.089844 133.933594 195.332031 132.03125 195.566406 130.132812 C 194.308594 128.949219 192.964844 127.703125 191.3125 127.082031 C 189.890625 127.0625 188.683594 128.058594 187.414062 128.601562 C 185.710938 129.058594 185.117188 130.59375 185.042969 132.175781 C 184.542969 133.742188 185.117188 135.351562 186.554688 136.214844 C 187.8125 137.132812 189.425781 138.589844 191.109375 137.960938 Z M 180.503906 135.765625 C 179.476562 133.886719 178.765625 131.828125 178.484375 129.710938 C 177.46875 129.910156 178.390625 132.378906 178.671875 133.386719 C 179.148438 134.746094 179.882812 135.996094 180.644531 137.21875 C 180.78125 136.714844 180.867188 136.214844 180.503906 135.765625 Z M 180.0625 127.398438 C 180.507812 126.765625 181.222656 126.261719 181.492188 125.539062 C 181.96875 123.347656 182.742188 121.230469 183.851562 119.269531 C 183.804688 118.003906 182.375 117.234375 181.664062 118.628906 C 179.632812 121.214844 178.042969 124.359375 177.972656 127.683594 C 177.703125 128.824219 178.707031 129.652344 179.285156 128.300781 C 179.542969 128 179.800781 127.699219 180.0625 127.398438 Z M 206.195312 128.96875 C 207.054688 127.851562 208.246094 126.527344 207.933594 125.015625 C 207.398438 122.148438 205.90625 119.429688 203.621094 117.5625 C 202.941406 117.277344 201.699219 116.230469 201.226562 117.21875 C 200.527344 118.546875 198.785156 119.804688 199.414062 121.460938 C 199.949219 123.09375 200.34375 124.800781 201.128906 126.339844 C 202.570312 127.453125 204.238281 128.316406 205.917969 129.046875 Z M 187.007812 128.226562 C 188.339844 127.5625 189.632812 126.824219 190.929688 126.101562 C 191.367188 124.589844 191.917969 123.113281 192.429688 121.625 C 192.5 120.015625 191.050781 118.863281 190.078125 117.734375 C 189.125 116.226562 187.511719 117.382812 186.335938 117.933594 C 183.746094 119.300781 183.152344 122.3125 182.273438 124.824219 C 182.394531 125.765625 183.265625 126.550781 183.902344 127.253906 C 184.78125 128.125 185.769531 129.289062 187.007812 128.226562 Z M 196.558594 120.097656 C 197.246094 120.003906 198.015625 120.074219 198.65625 119.882812 C 199.613281 118.863281 200.457031 117.671875 200.855469 116.332031 C 200.371094 114.984375 198.777344 114.367188 197.5 113.910156 C 195.871094 113.429688 194.125 113.195312 192.433594 113.386719 C 191.210938 114 189.019531 115.789062 190.257812 117.175781 C 191.164062 118.242188 192.128906 119.257812 193.109375 120.257812 C 194.261719 120.269531 195.410156 120.179688 196.558594 120.097656 Z M 196.558594 120.097656 " fill-opacity="1" fill-rule="nonzero"/></g><g fill="#ff00ff" fill-opacity="1"><g transform="translate(256.979824, 232.38441)"><g><path d="M 107.902344 -102.765625 L 25.691406 -102.765625 C 14.386719 -102.765625 5.136719 -93.515625 5.136719 -82.210938 L 5.136719 -61.660156 C 5.136719 -50.355469 14.386719 -41.105469 25.691406 -41.105469 L 87.351562 -41.105469 L 87.351562 -20.554688 L 5.136719 -20.554688 L 5.136719 0 L 87.351562 0 C 98.65625 0 107.902344 -9.25 107.902344 -20.554688 L 107.902344 -41.105469 C 107.902344 -52.410156 98.65625 -61.660156 87.351562 -61.660156 L 25.691406 -61.660156 L 25.691406 -82.210938 L 107.902344 -82.210938 Z M 107.902344 -102.765625 "/></g></g></g><g fill="#ff00ff" fill-opacity="1"><g transform="translate(390.317532, 232.38441)"><g><path d="M 87.351562 0 C 98.78125 0 107.902344 -9.378906 107.902344 -20.554688 L 107.902344 -82.210938 C 107.902344 -93.515625 98.65625 -102.765625 87.351562 -102.765625 L 25.691406 -102.765625 C 14.386719 -102.765625 5.136719 -93.515625 5.136719 -82.210938 L 5.136719 -20.554688 C 5.136719 -9.25 14.386719 0 25.691406 0 Z M 25.691406 -82.210938 L 87.351562 -82.210938 L 87.351562 -20.554688 L 25.691406 -20.554688 Z M 25.691406 -82.210938 "/></g></g></g><g fill="#ff00ff" fill-opacity="1"><g transform="translate(523.655241, 232.38441)"><g><path d="M 107.902344 -102.765625 L 25.691406 -102.765625 C 14.386719 -102.765625 5.136719 -93.515625 5.136719 -82.210938 L 5.136719 -61.660156 C 5.136719 -50.355469 14.386719 -41.105469 25.691406 -41.105469 L 87.351562 -41.105469 L 87.351562 -20.554688 L 5.136719 -20.554688 L 5.136719 0 L 87.351562 0 C 98.65625 0 107.902344 -9.25 107.902344 -20.554688 L 107.902344 -41.105469 C 107.902344 -52.410156 98.65625 -61.660156 87.351562 -61.660156 L 25.691406 -61.660156 L 25.691406 -82.210938 L 107.902344 -82.210938 Z M 107.902344 -102.765625 "/></g></g></g><g fill="#ff00ff" fill-opacity="1"><g transform="translate(656.992969, 232.38441)"><g><path d="M 87.351562 -61.660156 L 25.691406 -61.660156 L 25.691406 -102.765625 L 5.136719 -102.765625 L 5.136719 -61.660156 C 5.136719 -50.355469 14.386719 -41.105469 25.691406 -41.105469 L 87.351562 -41.105469 L 87.351562 -20.554688 L 5.136719 -20.554688 L 5.136719 0 L 87.351562 0 C 98.65625 0 107.902344 -9.25 107.902344 -20.554688 L 107.902344 -102.765625 L 87.351562 -102.765625 Z M 87.351562 -61.660156 "/></g></g></g><g fill="#ff00ff" fill-opacity="1"><g transform="translate(790.330657, 232.38441)"><g><path d="M 25.691406 -102.765625 C 14.386719 -102.765625 5.136719 -93.515625 5.136719 -82.210938 L 5.136719 0 L 25.691406 0 L 25.691406 -41.105469 L 87.351562 -41.105469 L 87.351562 0 L 107.902344 0 L 107.902344 -82.210938 C 107.902344 -93.515625 98.65625 -102.765625 87.351562 -102.765625 Z M 25.691406 -82.210938 L 87.351562 -82.210938 L 87.351562 -61.660156 L 25.691406 -61.660156 Z M 25.691406 -82.210938 "/></g></g></g><g fill="#ff00ff" fill-opacity="1"><g transform="translate(923.668345, 232.38441)"><g><path d="M 107.902344 0 L 107.902344 -20.554688 L 25.691406 -20.554688 L 25.691406 -102.765625 L 5.136719 -102.765625 L 5.136719 -20.554688 C 5.136719 -9.25 14.386719 0 25.691406 0 Z M 107.902344 0 "/></g></g></g><g fill="#ff00ff" fill-opacity="1"><g transform="translate(1057.006034, 232.38441)"><g/></g></g><g fill="#ff00ff" fill-opacity="1"><g transform="translate(1133.822913, 232.38441)"><g><path d="M 107.902344 -102.765625 L 25.691406 -102.765625 C 14.386719 -102.765625 5.136719 -93.515625 5.136719 -82.210938 L 5.136719 -61.660156 C 5.136719 -50.355469 14.386719 -41.105469 25.691406 -41.105469 L 87.351562 -41.105469 L 87.351562 -20.554688 L 5.136719 -20.554688 L 5.136719 0 L 87.351562 0 C 98.65625 0 107.902344 -9.25 107.902344 -20.554688 L 107.902344 -41.105469 C 107.902344 -52.410156 98.65625 -61.660156 87.351562 -61.660156 L 25.691406 -61.660156 L 25.691406 -82.210938 L 107.902344 -82.210938 Z M 107.902344 -102.765625 "/></g></g></g><g fill="#ff00ff" fill-opacity="1"><g transform="translate(1267.160601, 232.38441)"><g><path d="M 25.691406 -102.765625 C 14.386719 -102.765625 5.136719 -93.515625 5.136719 -82.210938 L 5.136719 0 L 25.691406 0 L 25.691406 -41.105469 L 87.351562 -41.105469 L 87.351562 0 L 107.902344 0 L 107.902344 -82.210938 C 107.902344 -93.515625 98.65625 -102.765625 87.351562 -102.765625 Z M 25.691406 -82.210938 L 87.351562 -82.210938 L 87.351562 -61.660156 L 25.691406 -61.660156 Z M 25.691406 -82.210938 "/></g></g></g><g fill="#ff00ff" fill-opacity="1"><g transform="translate(1400.498289, 232.38441)"><g><path d="M 87.351562 -61.660156 L 25.691406 -61.660156 L 25.691406 -102.765625 L 5.136719 -102.765625 L 5.136719 0 L 25.691406 0 L 25.691406 -41.105469 L 87.351562 -41.105469 L 87.351562 0 L 107.902344 0 L 107.902344 -102.765625 L 87.351562 -102.765625 Z M 87.351562 -61.660156 "/></g></g></g><g fill="#ff00ff" fill-opacity="1"><g transform="translate(1533.835977, 232.38441)"><g><path d="M 25.691406 -102.765625 C 14.386719 -102.765625 5.136719 -93.515625 5.136719 -82.210938 L 5.136719 0 L 25.691406 0 L 25.691406 -41.105469 L 87.351562 -41.105469 L 87.351562 0 L 107.902344 0 L 107.902344 -82.210938 C 107.902344 -93.515625 98.65625 -102.765625 87.351562 -102.765625 Z M 25.691406 -82.210938 L 87.351562 -82.210938 L 87.351562 -61.660156 L 25.691406 -61.660156 Z M 25.691406 -82.210938 "/></g></g></g><g fill="#00ffff" fill-opacity="1"><g transform="translate(272.625335, 235.996453)"><g><path d="M 107.902344 -102.765625 L 25.691406 -102.765625 C 14.386719 -102.765625 5.136719 -93.515625 5.136719 -82.210938 L 5.136719 -61.660156 C 5.136719 -50.355469 14.386719 -41.105469 25.691406 -41.105469 L 87.351562 -41.105469 L 87.351562 -20.554688 L 5.136719 -20.554688 L 5.136719 0 L 87.351562 0 C 98.65625 0 107.902344 -9.25 107.902344 -20.554688 L 107.902344 -41.105469 C 107.902344 -52.410156 98.65625 -61.660156 87.351562 -61.660156 L 25.691406 -61.660156 L 25.691406 -82.210938 L 107.902344 -82.210938 Z M 107.902344 -102.765625 "/></g></g></g><g fill="#00ffff" fill-opacity="1"><g transform="translate(405.963043, 235.996453)"><g><path d="M 87.351562 0 C 98.78125 0 107.902344 -9.378906 107.902344 -20.554688 L 107.902344 -82.210938 C 107.902344 -93.515625 98.65625 -102.765625 87.351562 -102.765625 L 25.691406 -102.765625 C 14.386719 -102.765625 5.136719 -93.515625 5.136719 -82.210938 L 5.136719 -20.554688 C 5.136719 -9.25 14.386719 0 25.691406 0 Z M 25.691406 -82.210938 L 87.351562 -82.210938 L 87.351562 -20.554688 L 25.691406 -20.554688 Z M 25.691406 -82.210938 "/></g></g></g><g fill="#00ffff" fill-opacity="1"><g transform="translate(539.300751, 235.996453)"><g><path d="M 107.902344 -102.765625 L 25.691406 -102.765625 C 14.386719 -102.765625 5.136719 -93.515625 5.136719 -82.210938 L 5.136719 -61.660156 C 5.136719 -50.355469 14.386719 -41.105469 25.691406 -41.105469 L 87.351562 -41.105469 L 87.351562 -20.554688 L 5.136719 -20.554688 L 5.136719 0 L 87.351562 0 C 98.65625 0 107.902344 -9.25 107.902344 -20.554688 L 107.902344 -41.105469 C 107.902344 -52.410156 98.65625 -61.660156 87.351562 -61.660156 L 25.691406 -61.660156 L 25.691406 -82.210938 L 107.902344 -82.210938 Z M 107.902344 -102.765625 "/></g></g></g><g fill="#00ffff" fill-opacity="1"><g transform="translate(672.63848, 235.996453)"><g><path d="M 87.351562 -61.660156 L 25.691406 -61.660156 L 25.691406 -102.765625 L 5.136719 -102.765625 L 5.136719 -61.660156 C 5.136719 -50.355469 14.386719 -41.105469 25.691406 -41.105469 L 87.351562 -41.105469 L 87.351562 -20.554688 L 5.136719 -20.554688 L 5.136719 0 L 87.351562 0 C 98.65625 0 107.902344 -9.25 107.902344 -20.554688 L 107.902344 -102.765625 L 87.351562 -102.765625 Z M 87.351562 -61.660156 "/></g></g></g><g fill="#00ffff" fill-opacity="1"><g transform="translate(805.976168, 235.996453)"><g><path d="M 25.691406 -102.765625 C 14.386719 -102.765625 5.136719 -93.515625 5.136719 -82.210938 L 5.136719 0 L 25.691406 0 L 25.691406 -41.105469 L 87.351562 -41.105469 L 87.351562 0 L 107.902344 0 L 107.902344 -82.210938 C 107.902344 -93.515625 98.65625 -102.765625 87.351562 -102.765625 Z M 25.691406 -82.210938 L 87.351562 -82.210938 L 87.351562 -61.660156 L 25.691406 -61.660156 Z M 25.691406 -82.210938 "/></g></g></g><g fill="#00ffff" fill-opacity="1"><g transform="translate(939.313856, 235.996453)"><g><path d="M 107.902344 0 L 107.902344 -20.554688 L 25.691406 -20.554688 L 25.691406 -102.765625 L 5.136719 -102.765625 L 5.136719 -20.554688 C 5.136719 -9.25 14.386719 0 25.691406 0 Z M 107.902344 0 "/></g></g></g><g fill="#00ffff" fill-opacity="1"><g transform="translate(1072.651544, 235.996453)"><g/></g></g><g fill="#00ffff" fill-opacity="1"><g transform="translate(1149.468423, 235.996453)"><g><path d="M 107.902344 -102.765625 L 25.691406 -102.765625 C 14.386719 -102.765625 5.136719 -93.515625 5.136719 -82.210938 L 5.136719 -61.660156 C 5.136719 -50.355469 14.386719 -41.105469 25.691406 -41.105469 L 87.351562 -41.105469 L 87.351562 -20.554688 L 5.136719 -20.554688 L 5.136719 0 L 87.351562 0 C 98.65625 0 107.902344 -9.25 107.902344 -20.554688 L 107.902344 -41.105469 C 107.902344 -52.410156 98.65625 -61.660156 87.351562 -61.660156 L 25.691406 -61.660156 L 25.691406 -82.210938 L 107.902344 -82.210938 Z M 107.902344 -102.765625 "/></g></g></g><g fill="#00ffff" fill-opacity="1"><g transform="translate(1282.806112, 235.996453)"><g><path d="M 25.691406 -102.765625 C 14.386719 -102.765625 5.136719 -93.515625 5.136719 -82.210938 L 5.136719 0 L 25.691406 0 L 25.691406 -41.105469 L 87.351562 -41.105469 L 87.351562 0 L 107.902344 0 L 107.902344 -82.210938 C 107.902344 -93.515625 98.65625 -102.765625 87.351562 -102.765625 Z M 25.691406 -82.210938 L 87.351562 -82.210938 L 87.351562 -61.660156 L 25.691406 -61.660156 Z M 25.691406 -82.210938 "/></g></g></g><g fill="#00ffff" fill-opacity="1"><g transform="translate(1416.1438, 235.996453)"><g><path d="M 87.351562 -61.660156 L 25.691406 -61.660156 L 25.691406 -102.765625 L 5.136719 -102.765625 L 5.136719 0 L 25.691406 0 L 25.691406 -41.105469 L 87.351562 -41.105469 L 87.351562 0 L 107.902344 0 L 107.902344 -102.765625 L 87.351562 -102.765625 Z M 87.351562 -61.660156 "/></g></g></g><g fill="#00ffff" fill-opacity="1"><g transform="translate(1549.481488, 235.996453)"><g><path d="M 25.691406 -102.765625 C 14.386719 -102.765625 5.136719 -93.515625 5.136719 -82.210938 L 5.136719 0 L 25.691406 0 L 25.691406 -41.105469 L 87.351562 -41.105469 L 87.351562 0 L 107.902344 0 L 107.902344 -82.210938 C 107.902344 -93.515625 98.65625 -102.765625 87.351562 -102.765625 Z M 25.691406 -82.210938 L 87.351562 -82.210938 L 87.351562 -61.660156 L 25.691406 -61.660156 Z M 25.691406 -82.210938 "/></g></g></g><g fill="#ffffff" fill-opacity="1"><g transform="translate(264.802579, 234.190433)"><g><path d="M 107.902344 -102.765625 L 25.691406 -102.765625 C 14.386719 -102.765625 5.136719 -93.515625 5.136719 -82.210938 L 5.136719 -61.660156 C 5.136719 -50.355469 14.386719 -41.105469 25.691406 -41.105469 L 87.351562 -41.105469 L 87.351562 -20.554688 L 5.136719 -20.554688 L 5.136719 0 L 87.351562 0 C 98.65625 0 107.902344 -9.25 107.902344 -20.554688 L 107.902344 -41.105469 C 107.902344 -52.410156 98.65625 -61.660156 87.351562 -61.660156 L 25.691406 -61.660156 L 25.691406 -82.210938 L 107.902344 -82.210938 Z M 107.902344 -102.765625 "/></g></g></g><g fill="#ffffff" fill-opacity="1"><g transform="translate(398.140288, 234.190433)"><g><path d="M 87.351562 0 C 98.78125 0 107.902344 -9.378906 107.902344 -20.554688 L 107.902344 -82.210938 C 107.902344 -93.515625 98.65625 -102.765625 87.351562 -102.765625 L 25.691406 -102.765625 C 14.386719 -102.765625 5.136719 -93.515625 5.136719 -82.210938 L 5.136719 -20.554688 C 5.136719 -9.25 14.386719 0 25.691406 0 Z M 25.691406 -82.210938 L 87.351562 -82.210938 L 87.351562 -20.554688 L 25.691406 -20.554688 Z M 25.691406 -82.210938 "/></g></g></g><g fill="#ffffff" fill-opacity="1"><g transform="translate(531.477996, 234.190433)"><g><path d="M 107.902344 -102.765625 L 25.691406 -102.765625 C 14.386719 -102.765625 5.136719 -93.515625 5.136719 -82.210938 L 5.136719 -61.660156 C 5.136719 -50.355469 14.386719 -41.105469 25.691406 -41.105469 L 87.351562 -41.105469 L 87.351562 -20.554688 L 5.136719 -20.554688 L 5.136719 0 L 87.351562 0 C 98.65625 0 107.902344 -9.25 107.902344 -20.554688 L 107.902344 -41.105469 C 107.902344 -52.410156 98.65625 -61.660156 87.351562 -61.660156 L 25.691406 -61.660156 L 25.691406 -82.210938 L 107.902344 -82.210938 Z M 107.902344 -102.765625 "/></g></g></g><g fill="#ffffff" fill-opacity="1"><g transform="translate(664.815724, 234.190433)"><g><path d="M 87.351562 -61.660156 L 25.691406 -61.660156 L 25.691406 -102.765625 L 5.136719 -102.765625 L 5.136719 -61.660156 C 5.136719 -50.355469 14.386719 -41.105469 25.691406 -41.105469 L 87.351562 -41.105469 L 87.351562 -20.554688 L 5.136719 -20.554688 L 5.136719 0 L 87.351562 0 C 98.65625 0 107.902344 -9.25 107.902344 -20.554688 L 107.902344 -102.765625 L 87.351562 -102.765625 Z M 87.351562 -61.660156 "/></g></g></g><g fill="#ffffff" fill-opacity="1"><g transform="translate(798.153412, 234.190433)"><g><path d="M 25.691406 -102.765625 C 14.386719 -102.765625 5.136719 -93.515625 5.136719 -82.210938 L 5.136719 0 L 25.691406 0 L 25.691406 -41.105469 L 87.351562 -41.105469 L 87.351562 0 L 107.902344 0 L 107.902344 -82.210938 C 107.902344 -93.515625 98.65625 -102.765625 87.351562 -102.765625 Z M 25.691406 -82.210938 L 87.351562 -82.210938 L 87.351562 -61.660156 L 25.691406 -61.660156 Z M 25.691406 -82.210938 "/></g></g></g><g fill="#ffffff" fill-opacity="1"><g transform="translate(931.491101, 234.190433)"><g><path d="M 107.902344 0 L 107.902344 -20.554688 L 25.691406 -20.554688 L 25.691406 -102.765625 L 5.136719 -102.765625 L 5.136719 -20.554688 C 5.136719 -9.25 14.386719 0 25.691406 0 Z M 107.902344 0 "/></g></g></g><g fill="#ffffff" fill-opacity="1"><g transform="translate(1064.828789, 234.190433)"><g/></g></g><g fill="#ffffff" fill-opacity="1"><g transform="translate(1141.645668, 234.190433)"><g><path d="M 107.902344 -102.765625 L 25.691406 -102.765625 C 14.386719 -102.765625 5.136719 -93.515625 5.136719 -82.210938 L 5.136719 -61.660156 C 5.136719 -50.355469 14.386719 -41.105469 25.691406 -41.105469 L 87.351562 -41.105469 L 87.351562 -20.554688 L 5.136719 -20.554688 L 5.136719 0 L 87.351562 0 C 98.65625 0 107.902344 -9.25 107.902344 -20.554688 L 107.902344 -41.105469 C 107.902344 -52.410156 98.65625 -61.660156 87.351562 -61.660156 L 25.691406 -61.660156 L 25.691406 -82.210938 L 107.902344 -82.210938 Z M 107.902344 -102.765625 "/></g></g></g><g fill="#ffffff" fill-opacity="1"><g transform="translate(1274.983356, 234.190433)"><g><path d="M 25.691406 -102.765625 C 14.386719 -102.765625 5.136719 -93.515625 5.136719 -82.210938 L 5.136719 0 L 25.691406 0 L 25.691406 -41.105469 L 87.351562 -41.105469 L 87.351562 0 L 107.902344 0 L 107.902344 -82.210938 C 107.902344 -93.515625 98.65625 -102.765625 87.351562 -102.765625 Z M 25.691406 -82.210938 L 87.351562 -82.210938 L 87.351562 -61.660156 L 25.691406 -61.660156 Z M 25.691406 -82.210938 "/></g></g></g><g fill="#ffffff" fill-opacity="1"><g transform="translate(1408.321045, 234.190433)"><g><path d="M 87.351562 -61.660156 L 25.691406 -61.660156 L 25.691406 -102.765625 L 5.136719 -102.765625 L 5.136719 0 L 25.691406 0 L 25.691406 -41.105469 L 87.351562 -41.105469 L 87.351562 0 L 107.902344 0 L 107.902344 -102.765625 L 87.351562 -102.765625 Z M 87.351562 -61.660156 "/></g></g></g><g fill="#ffffff" fill-opacity="1"><g transform="translate(1541.658733, 234.190433)"><g><path d="M 25.691406 -102.765625 C 14.386719 -102.765625 5.136719 -93.515625 5.136719 -82.210938 L 5.136719 0 L 25.691406 0 L 25.691406 -41.105469 L 87.351562 -41.105469 L 87.351562 0 L 107.902344 0 L 107.902344 -82.210938 C 107.902344 -93.515625 98.65625 -102.765625 87.351562 -102.765625 Z M 25.691406 -82.210938 L 87.351562 -82.210938 L 87.351562 -61.660156 L 25.691406 -61.660156 Z M 25.691406 -82.210938 "/></g></g></g></svg>